<svg width="71" height="71" viewBox="0 0 71 71" fill="none" xmlns="http://www.w3.org/2000/svg">
<path d="M2.71357 22.3601C2.61797 22.3598 2.52244 22.3547 2.42735 22.3448C2.08432 22.3073 1.75205 22.2026 1.44951 22.0366C1.14697 21.8706 0.880088 21.6467 0.664114 21.3775C0.44814 21.1084 0.287302 20.7994 0.190787 20.4681C0.0942728 20.1368 0.0639725 19.7897 0.101617 19.4467C0.270309 17.8925 0.473569 16.4047 0.725223 14.8906V14.8657C1.94063 8.01434 8.02045 1.93453 14.8718 0.723267H14.8981C16.4108 0.466081 17.9014 0.262821 19.4542 0.0982779C20.1469 0.0232837 20.841 0.226548 21.3839 0.663356C21.9268 1.10016 22.2739 1.73473 22.3489 2.42747C22.4239 3.1202 22.2206 3.81435 21.7838 4.35722C21.347 4.90009 20.7124 5.24719 20.0197 5.32219C18.5991 5.4758 17.1831 5.66946 15.7734 5.90293C13.5168 6.30115 11.2546 7.54284 9.40179 9.39568C7.54894 11.2485 6.30864 13.5107 5.90627 15.7672C5.67259 17.1735 5.47901 18.5631 5.32553 20.0094C5.25724 20.6546 4.95263 21.2517 4.47038 21.6857C3.98813 22.1197 3.36235 22.3599 2.71357 22.3601ZM68.2462 22.3822C67.5989 22.3815 66.9747 22.142 66.4932 21.7095C66.0117 21.277 65.7068 20.6819 65.637 20.0385C65.4807 18.5894 65.2913 17.1997 65.0576 15.7935C64.6594 13.5355 63.4149 11.2734 61.5607 9.42057C59.7065 7.56772 57.4457 6.32051 55.1891 5.92505C53.7796 5.69023 52.3636 5.49657 50.9428 5.34431C50.2501 5.26932 49.6155 4.92221 49.1787 4.37934C48.7419 3.83648 48.5386 3.14232 48.6136 2.44959C48.6886 1.75686 49.0357 1.12229 49.5786 0.68548C50.1215 0.248672 50.8156 0.0454073 51.5083 0.120401C53.0611 0.28771 54.5503 0.492353 56.0644 0.744008H56.0907C62.9434 1.95942 69.0232 8.03923 70.2331 14.8934V14.9196C70.4848 16.431 70.6894 17.9215 70.8567 19.4826C70.9289 20.1731 70.7247 20.8641 70.2889 21.4046C69.8531 21.9451 69.2211 22.2911 68.531 22.367C68.4364 22.3774 68.3413 22.3825 68.2462 22.3822ZM51.2221 70.9128C50.5503 70.9114 49.9046 70.6526 49.4177 70.1897C48.9308 69.7269 48.6397 69.095 48.6043 68.4242C48.5689 67.7533 48.7918 67.0943 49.2273 66.5828C49.6628 66.0712 50.2777 65.7459 50.9456 65.6737C52.396 65.5161 53.7857 65.3267 55.1905 65.093C57.4485 64.6906 59.7106 63.4503 61.5635 61.5961C63.4163 59.7419 64.6594 57.4811 65.0576 55.2245C65.2913 53.8169 65.4807 52.4287 65.637 50.9796C65.712 50.2868 66.0591 49.6523 66.6019 49.2154C67.1448 48.7786 67.8389 48.5754 68.5317 48.6504C69.2244 48.7254 69.859 49.0725 70.2958 49.6153C70.7326 50.1582 70.9359 50.8524 70.8609 51.5451C70.6936 53.0993 70.4889 54.5871 70.2373 56.1011V56.1274C69.0274 62.9788 62.9476 69.0586 56.0948 70.2685H56.0699C54.5552 70.5197 53.0336 70.7276 51.507 70.8921C51.4124 70.9038 51.3174 70.9107 51.2221 70.9128ZM19.7404 70.8935C19.6447 70.8934 19.5492 70.8878 19.4542 70.8769C17.8986 70.7082 16.4122 70.5049 14.8981 70.2533H14.8718C8.02045 69.0323 1.94063 62.9525 0.729372 56.0984V56.0721C0.473569 54.5636 0.270309 53.0744 0.101617 51.5188C0.0266229 50.8261 0.229888 50.1319 0.666696 49.5891C1.1035 49.0462 1.73807 48.6991 2.43081 48.6241C3.12354 48.5491 3.81769 48.7524 4.36056 49.1892C4.90342 49.626 5.25054 50.2606 5.32553 50.9533C5.48316 52.4038 5.67259 53.792 5.90627 55.1996C6.30864 57.4562 7.55309 59.7183 9.40179 61.5712C11.2505 63.424 13.5168 64.6712 15.7734 65.0667C17.181 65.3004 18.5692 65.4912 20.0197 65.6474C20.6902 65.7165 21.3086 66.0406 21.7468 66.5528C22.1851 67.065 22.4096 67.7261 22.3741 68.3992C22.3386 69.0724 22.0457 69.7061 21.556 70.1694C21.0663 70.6326 20.4172 70.8899 19.7431 70.8879L19.7404 70.8935Z" fill="white"/>
<path d="M18.8386 38.0299H39.1001C39.1114 38.1056 39.1226 38.1813 39.1354 38.2563C39.3535 39.4918 40.4464 40.5848 41.6781 40.8022C42.5394 40.9454 43.4472 41.0151 44.4577 41.0166C45.4689 41.0151 46.3775 40.9454 47.2343 40.8029C48.4697 40.5848 49.5626 39.4918 49.78 38.2601C49.7927 38.1836 49.804 38.1064 49.816 38.0292H52.1211C53.5289 38.0292 54.6705 36.8874 54.6705 35.4795C54.6705 34.0717 53.5289 32.9299 52.1211 32.9299H49.816C49.8047 32.8542 49.7935 32.7785 49.7807 32.7035C49.5626 31.4681 48.4697 30.3751 47.238 30.1569C46.376 30.0137 45.4682 29.944 44.4584 29.9425C43.4479 29.944 42.5401 30.0137 41.6818 30.1562C40.4464 30.3743 39.3535 31.4673 39.1354 32.699C39.1226 32.7755 39.1114 32.8527 39.0994 32.9299H18.8386C17.4308 32.9299 16.2891 34.0717 16.2891 35.4795C16.2891 36.8874 17.4308 38.0292 18.8386 38.0292V38.0299ZM16.2891 21.8259C16.2891 23.2337 17.4308 24.3755 18.8386 24.3755H21.1437C21.1549 24.4527 21.1669 24.5299 21.1796 24.6064C21.397 25.8381 22.49 26.9311 23.7254 27.1492C24.5822 27.2917 25.49 27.3614 26.502 27.3629C27.5125 27.3614 28.4202 27.2917 29.2816 27.1485C30.5132 26.9311 31.6061 25.8381 31.8243 24.6026C31.837 24.5277 31.8483 24.4519 31.8595 24.3755H52.1211C53.5289 24.3755 54.6705 23.2337 54.6705 21.8259C54.6705 20.418 53.5289 19.2762 52.1211 19.2762H31.8588C31.8475 19.199 31.8355 19.1218 31.8228 19.0453C31.6054 17.8136 30.5124 16.7206 29.2763 16.5025C28.4195 16.36 27.5117 16.2903 26.5005 16.2888C25.4907 16.2903 24.5829 16.36 23.7209 16.5032C22.4892 16.7206 21.3963 17.8136 21.1781 19.0498C21.1654 19.1248 21.1541 19.2005 21.1429 19.2762H18.8378C17.4308 19.2762 16.2891 20.4172 16.2891 21.8259ZM18.8386 51.6843H21.1437C21.1549 51.7616 21.1669 51.8388 21.1796 51.9152C21.397 53.1469 22.49 54.24 23.7254 54.4581C24.5822 54.6005 25.49 54.671 26.502 54.6718C27.5125 54.6703 28.4202 54.6005 29.2816 54.4574C30.5132 54.24 31.6061 53.1469 31.8243 51.9115C31.837 51.8365 31.8483 51.7608 31.8595 51.6843H52.1211C53.5289 51.6843 54.6705 50.5426 54.6705 49.1347C54.6705 47.7268 53.5289 46.5851 52.1211 46.5851H31.8588C31.8475 46.5079 31.8355 46.4307 31.8228 46.3542C31.6054 45.1225 30.5124 44.0295 29.2763 43.8113C28.4187 43.6689 27.511 43.5984 26.4997 43.5977C25.49 43.5992 24.5822 43.6689 23.7201 43.8121C22.4885 44.0295 21.3955 45.1225 21.1774 46.358C21.1646 46.4329 21.1534 46.5086 21.1422 46.5844H18.8371C17.4293 46.5844 16.2876 47.7261 16.2876 49.134C16.2876 50.5418 17.4293 51.6836 18.8371 51.6836L18.8386 51.6843Z" fill="white"/>
</svg>
