<svg width="72" height="72" viewBox="0 0 72 72" fill="none" xmlns="http://www.w3.org/2000/svg">
<g clip-path="url(#clip0_207_923)">
<path d="M3.5832 23.1914C3.4876 23.1912 3.39207 23.1861 3.29698 23.1762C2.95395 23.1387 2.62168 23.0339 2.31914 22.8679C2.0166 22.702 1.74972 22.478 1.53374 22.2089C1.31777 21.9398 1.15693 21.6307 1.06042 21.2994C0.963902 20.9681 0.933601 20.621 0.971246 20.278C1.13994 18.7238 1.3432 17.236 1.59485 15.722V15.6971C2.81026 8.8457 8.89008 2.76589 15.7414 1.55463H15.7677C17.2804 1.29744 18.771 1.09418 20.3238 0.929638C21.0165 0.854644 21.7107 1.05791 22.2535 1.49472C22.7964 1.93152 23.1435 2.56609 23.2185 3.25883C23.2935 3.95156 23.0902 4.64571 22.6534 5.18858C22.2166 5.73144 21.582 6.07855 20.8893 6.15355C19.4687 6.30716 18.0527 6.50082 16.643 6.73429C14.3864 7.13251 12.1243 8.37419 10.2714 10.227C8.41857 12.0799 7.17827 14.342 6.7759 16.5986C6.54222 18.0048 6.34864 19.3945 6.19516 20.8408C6.12687 21.486 5.82226 22.0831 5.34001 22.5171C4.85776 22.951 4.23198 23.1913 3.5832 23.1914ZM69.1158 23.2135C68.4685 23.2129 67.8443 22.9733 67.3628 22.5408C66.8813 22.1083 66.5764 21.5133 66.5066 20.8698C66.3503 19.4207 66.1609 18.0311 65.9272 16.6249C65.529 14.3669 64.2846 12.1048 62.4303 10.2519C60.5761 8.39908 58.3154 7.15187 56.0588 6.75641C54.6493 6.52159 53.2332 6.32793 51.8124 6.17567C51.1197 6.10068 50.4851 5.75357 50.0483 5.2107C49.6115 4.66784 49.4082 3.97368 49.4832 3.28095C49.5582 2.58822 49.9053 1.95365 50.4482 1.51684C50.9911 1.08003 51.6852 0.876767 52.378 0.951761C53.9308 1.11907 55.4199 1.32371 56.934 1.57537H56.9603C63.8131 2.79078 69.8929 8.87059 71.1027 15.7247V15.751C71.3544 17.2623 71.559 18.7529 71.7264 20.314C71.7985 21.0045 71.5943 21.6955 71.1585 22.236C70.7228 22.7764 70.0907 23.1224 69.4006 23.1983C69.306 23.2088 69.2109 23.2139 69.1158 23.2135ZM52.0917 71.7442C51.4199 71.7427 50.7742 71.484 50.2873 71.0211C49.8004 70.5582 49.5093 69.9264 49.4739 69.2555C49.4385 68.5846 49.6614 67.9257 50.0969 67.4141C50.5324 66.9026 51.1473 66.5772 51.8152 66.5051C53.2657 66.3474 54.6553 66.158 56.0601 65.9243C58.3181 65.522 60.5803 64.2817 62.4331 62.4274C64.2859 60.5732 65.529 58.3125 65.9272 56.0559C66.1609 54.6483 66.3503 53.26 66.5066 51.8109C66.5816 51.1182 66.9287 50.4836 67.4716 50.0468C68.0144 49.61 68.7086 49.4067 69.4013 49.4817C70.094 49.5567 70.7286 49.9038 71.1654 50.4467C71.6022 50.9896 71.8055 51.6837 71.7305 52.3765C71.5632 53.9306 71.3585 55.4184 71.1069 56.9325V56.9588C69.897 63.8102 63.8172 69.89 56.9644 71.0998H56.9396C55.4248 71.3511 53.9032 71.559 52.3766 71.7234C52.282 71.7351 52.187 71.7421 52.0917 71.7442ZM20.61 71.7248C20.5144 71.7247 20.4188 71.7192 20.3238 71.7082C18.7682 71.5396 17.2818 71.3363 15.7677 71.0846H15.7414C8.89008 69.8637 2.81026 63.7839 1.599 56.9297V56.9035C1.3432 55.3949 1.13994 53.9057 0.971246 52.3502C0.896252 51.6574 1.09952 50.9633 1.53632 50.4204C1.97313 49.8776 2.6077 49.5305 3.30044 49.4555C3.99317 49.3805 4.68732 49.5837 5.23019 50.0205C5.77305 50.4573 6.12016 51.0919 6.19516 51.7847C6.35279 53.2351 6.54222 54.6234 6.7759 56.031C7.17827 58.2876 8.42272 60.5497 10.2714 62.4025C12.1201 64.2554 14.3864 65.5026 16.643 65.8981C18.0506 66.1317 19.4388 66.3226 20.8893 66.4788C21.5599 66.5478 22.1782 66.872 22.6164 67.3842C23.0547 67.8964 23.2793 68.5574 23.2437 69.2306C23.2082 69.9037 22.9153 70.5375 22.4256 71.0007C21.9359 71.4639 21.2869 71.7212 20.6128 71.7193L20.61 71.7248ZM36.915 57.0542C33.6919 57.1344 27.3604 56.6394 25.2905 56.1416C23.8801 55.8443 22.5541 55.023 21.5572 53.8809C20.5705 52.7665 19.9503 51.3759 19.7804 49.8972V49.853C19.6727 48.7868 19.6395 47.7145 19.6808 46.6437C19.6808 46.6437 19.602 45.6993 19.7804 43.9847V43.9419C19.9312 42.5343 20.5609 41.2212 21.5641 40.2224C22.572 39.2128 23.8935 38.5765 25.3112 38.4179C27.3853 38.1981 33.7057 38.0778 36.9164 38.0778C40.1271 38.0778 45.2819 38.1981 47.3573 38.4179C48.7751 38.5762 50.0967 39.2127 51.1045 40.2224C52.1079 41.2216 52.7376 42.5352 52.8882 43.9432V43.9861C52.9907 44.8678 53.0429 45.7547 53.0444 46.6423C53.0493 47.7164 52.9976 48.7899 52.8896 49.8585V49.9014C52.7192 51.3812 52.0979 52.7729 51.11 53.8878C50.1103 55.0299 48.7843 55.8512 47.3767 56.1485C45.3026 56.6145 40.1381 57.0763 36.915 57.0542Z" fill="white"/>
<path d="M36.1416 35.6664C41.685 35.6664 46.1788 31.1726 46.1788 25.6292C46.1788 20.0858 41.685 15.592 36.1416 15.592C30.5983 15.592 26.1045 20.0858 26.1045 25.6292C26.1045 31.1726 30.5983 35.6664 36.1416 35.6664Z" fill="white"/>
</g>
<defs>
<clipPath id="clip0_207_923">
<rect width="70.7952" height="70.7952" fill="white" transform="translate(0.953613 0.929199)"/>
</clipPath>
</defs>
</svg>
