<svg width="1118" height="186" viewBox="0 0 1118 186" fill="none" xmlns="http://www.w3.org/2000/svg">
<path d="M335.35 87.2528V181.846H310.326V39.4062H335.35V60.7172C340.391 53.6594 346.624 47.7931 354.048 43.1184C361.473 38.4438 369.585 36.1064 378.384 36.1064C389.2 36.1064 398.778 38.7646 407.12 44.0809C415.461 49.3055 421.785 56.4092 426.093 65.3919C431.684 56.5008 438.834 49.3972 447.542 44.0809C456.249 38.7646 465.69 36.1064 475.865 36.1064C491.997 36.1064 505.104 41.4686 515.187 52.1928C525.269 62.8254 530.311 76.4827 530.311 93.1649V181.846H505.288V94.5398C505.288 84.1822 502.217 75.612 496.076 68.8291C490.026 61.9546 482.052 58.5174 472.152 58.5174C464.361 58.5174 457.074 61.2672 450.291 66.7668C443.509 72.1747 437.597 79.1409 432.555 87.6653C432.739 89.8651 432.83 91.6983 432.83 93.1649V181.846H407.807V94.5398C407.807 84.1822 404.736 75.612 398.595 68.8291C392.546 61.9546 384.571 58.5174 374.672 58.5174C366.881 58.5174 359.594 61.2213 352.811 66.6293C346.12 71.9456 340.299 78.8201 335.35 87.2528Z" fill="white"/>
<path d="M581.014 87.2528V181.846H555.99V39.4062H581.014V60.7172C586.055 53.6594 592.288 47.7931 599.712 43.1184C607.137 38.4438 615.249 36.1064 624.048 36.1064C634.864 36.1064 644.442 38.7646 652.784 44.0809C661.125 49.3055 667.449 56.4092 671.757 65.3919C677.348 56.5008 684.498 49.3972 693.206 44.0809C701.913 38.7646 711.354 36.1064 721.529 36.1064C737.661 36.1064 750.768 41.4686 760.851 52.1928C770.934 62.8254 775.975 76.4827 775.975 93.1649V181.846H750.952V94.5398C750.952 84.1822 747.881 75.612 741.74 68.8291C735.69 61.9546 727.716 58.5174 717.816 58.5174C710.025 58.5174 702.738 61.2672 695.956 66.7668C689.173 72.1747 683.261 79.1409 678.219 87.6653C678.403 89.8651 678.494 91.6983 678.494 93.1649V181.846H653.471V94.5398C653.471 84.1822 650.4 75.612 644.259 68.8291C638.21 61.9546 630.235 58.5174 620.336 58.5174C612.545 58.5174 605.258 61.2213 598.475 66.6293C591.784 71.9456 585.963 78.8201 581.014 87.2528Z" fill="white"/>
<path d="M177.468 147.611C187.459 157.694 199.696 162.735 214.178 162.735C228.66 162.735 240.851 157.694 250.751 147.611C260.741 137.437 265.737 125.108 265.737 110.626C265.737 96.1438 260.741 83.8614 250.751 73.7788C240.851 63.6045 228.66 58.5174 214.178 58.5174C199.696 58.5174 187.459 63.6045 177.468 73.7788C167.569 83.8614 162.619 96.1438 162.619 110.626C162.619 125.108 167.569 137.437 177.468 147.611ZM174.718 46.1432C186.543 39.452 199.696 36.1064 214.178 36.1064C228.66 36.1064 241.814 39.452 253.638 46.1432C265.462 52.8344 274.674 61.8629 281.273 73.2288C287.873 84.5947 291.173 97.0604 291.173 110.626C291.173 124.192 287.873 136.658 281.273 148.023C274.674 159.389 265.462 168.418 253.638 175.109C241.814 181.8 228.66 185.146 214.178 185.146C199.696 185.146 186.543 181.8 174.718 175.109C162.894 168.418 153.682 159.389 147.083 148.023C140.483 136.658 137.184 124.192 137.184 110.626C137.184 97.0604 140.483 84.5947 147.083 73.2288C153.682 61.8629 162.894 52.8344 174.718 46.1432Z" fill="white"/>
<path d="M76.9945 185.146C62.5122 185.146 49.359 181.8 37.5348 175.109C25.7107 168.418 16.4988 159.389 9.8993 148.023C3.29977 136.658 0 124.192 0 110.626C0 97.0604 3.29977 84.5947 9.8993 73.2288C16.4988 61.8629 25.7107 52.8344 37.5348 46.1432C49.359 39.452 62.5122 36.1064 76.9945 36.1064C96.8848 36.1064 114.163 42.3852 128.828 54.9426L115.767 74.6037C103.668 63.8795 90.7435 58.5174 76.9945 58.5174C62.5122 58.5174 50.2756 63.6045 40.2846 73.7788C30.3853 83.8614 25.4357 96.1438 25.4357 110.626C25.4357 125.108 30.3853 137.437 40.2846 147.611C50.2756 157.694 62.5122 162.735 76.9945 162.735C91.8435 162.735 105.088 157.006 116.729 145.549L131.441 163.835C116.775 178.042 98.6263 185.146 76.9945 185.146Z" fill="white"/>
<rect x="815.991" y="0.146973" width="130.005" height="24.8946" fill="#0469FF"/>
<rect x="868.531" y="0.146973" width="27.6606" height="160.432" fill="#0469FF"/>
<rect x="815.991" y="160.578" width="130.005" height="24.8946" fill="#0469FF"/>
<path d="M984.715 160.579H1089.83V185.473H984.715V160.579Z" fill="#0469FF"/>
<path d="M957.054 0.146973H1117.49V25.0415H957.054V0.146973Z" fill="#0469FF"/>
<path d="M1023.44 0.146973H1051.1V166.111H1023.44V0.146973Z" fill="#0469FF"/>
<path d="M957.054 0.146973H984.715V47.17H957.054V0.146973Z" fill="#0469FF"/>
<path d="M1089.83 0.146973H1117.49V47.17H1089.83V0.146973Z" fill="#0469FF"/>
</svg>
