<svg width="725" height="920" viewBox="0 0 725 920" fill="none" xmlns="http://www.w3.org/2000/svg">
<g opacity="0.5">
<path d="M670.877 551.054C669.582 520.969 611.968 430.071 391.87 307.158C293.713 246.939 278.747 261.525 286.566 278.039C262.886 303.746 71.7288 115.072 71.7288 115.072C83.7926 186.675 186.624 273.855 236.532 308.494C268.307 334.548 359.31 393.108 469.119 418.917C578.928 444.725 649.378 517.762 670.877 551.054Z" fill="white" fill-opacity="0.36" stroke="black" stroke-width="0.592329"/>
<path d="M689.991 767.355C692.666 655.281 635.327 396.125 384.573 256.092C273.507 173.169 253.213 250.581 260.405 301.582C227.923 434.023 21.7202 1.99999 21.7202 1.99999C26.2952 255.45 139.244 433.611 195.147 491.009C230.173 542.708 332.758 629.932 462.882 565.236C593.006 500.539 668.506 673.025 689.991 767.355Z" fill="#6C0650" stroke="black" stroke-width="0.592329"/>
<path d="M708.314 898.616C710.232 808.304 659.043 596.952 438.946 474.039C341.38 402.737 323.903 464.386 330.393 505.817C302.453 611.38 120.26 254.664 120.26 254.664C125.226 459.322 224.801 607.533 273.968 656.056C304.834 699.154 394.991 773.589 508.686 726.551C622.381 679.512 689.144 821.662 708.314 898.616Z" fill="#001F66" stroke="black" stroke-width="0.592329"/>
</g>
</svg>
