<svg width="50" height="50" viewBox="0 0 50 50" fill="none" xmlns="http://www.w3.org/2000/svg">
<path d="M2.10307 15.4702C2.03668 15.47 1.97034 15.4665 1.9043 15.4596C1.66609 15.4335 1.43534 15.3608 1.22524 15.2455C1.01515 15.1303 0.829814 14.9748 0.679832 14.7879C0.529849 14.601 0.418157 14.3864 0.351133 14.1563C0.284109 13.9262 0.263067 13.6852 0.289209 13.447C0.406356 12.3677 0.547509 11.3345 0.722269 10.2831V10.2658C1.5663 5.50787 5.7884 1.28578 10.5463 0.444624H10.5645C11.615 0.266023 12.6501 0.124871 13.7285 0.0106043C14.2095 -0.041475 14.6916 0.099681 15.0686 0.40302C15.4456 0.706358 15.6866 1.14703 15.7387 1.6281C15.7908 2.10916 15.6496 2.59121 15.3463 2.9682C15.0429 3.34519 14.6023 3.58624 14.1212 3.63832C13.1347 3.745 12.1513 3.87948 11.1724 4.04161C9.60528 4.31816 8.03436 5.18044 6.74766 6.46713C5.46096 7.75383 4.59964 9.32475 4.32022 10.8918C4.15794 11.8684 4.02351 12.8334 3.91693 13.8378C3.8695 14.2858 3.65797 14.7005 3.32307 15.0019C2.98818 15.3033 2.55361 15.4701 2.10307 15.4702ZM47.6118 15.4855C47.1623 15.4851 46.7289 15.3187 46.3945 15.0184C46.0601 14.718 45.8484 14.3048 45.7999 13.858C45.6914 12.8516 45.5598 11.8866 45.3975 10.9101C45.121 9.34204 44.2568 7.77111 42.9691 6.48442C41.6815 5.19772 40.1115 4.3316 38.5444 4.05698C37.5656 3.89391 36.5822 3.75942 35.5956 3.65368C35.1145 3.6016 34.6739 3.36056 34.3705 2.98357C34.0672 2.60658 33.926 2.12453 33.9781 1.64346C34.0302 1.1624 34.2712 0.721722 34.6482 0.418383C35.0252 0.115045 35.5073 -0.0261115 35.9883 0.0259678C37.0667 0.142155 38.1008 0.284267 39.1522 0.459028H39.1705C43.9294 1.30306 48.1514 5.52516 48.9916 10.285V10.3032C49.1664 11.3527 49.3085 12.3879 49.4247 13.4719C49.4748 13.9515 49.333 14.4313 49.0304 14.8067C48.7278 15.182 48.2889 15.4223 47.8096 15.475C47.7439 15.4822 47.6779 15.4858 47.6118 15.4855ZM35.7896 49.1874C35.323 49.1864 34.8746 49.0067 34.5365 48.6852C34.1983 48.3638 33.9962 47.925 33.9716 47.4591C33.947 46.9932 34.1018 46.5356 34.4043 46.1804C34.7067 45.8251 35.1337 45.5992 35.5975 45.5491C36.6048 45.4396 37.5698 45.3081 38.5454 45.1458C40.1134 44.8664 41.6844 44.0051 42.9711 42.7174C44.2577 41.4298 45.121 39.8598 45.3975 38.2927C45.5598 37.3152 45.6914 36.3511 45.7999 35.3448C45.8519 34.8638 46.093 34.4231 46.47 34.1197C46.847 33.8164 47.329 33.6753 47.8101 33.7273C48.2912 33.7794 48.7318 34.0205 49.0352 34.3975C49.3385 34.7744 49.4797 35.2565 49.4276 35.7376C49.3114 36.8168 49.1693 37.85 48.9945 38.9015V38.9197C48.1543 43.6776 43.9322 47.8997 39.1734 48.7399H39.1561C38.1042 48.9144 37.0475 49.0588 35.9874 49.173C35.9217 49.1811 35.8557 49.1859 35.7896 49.1874ZM13.9272 49.1739C13.8608 49.1739 13.7945 49.17 13.7285 49.1624C12.6482 49.0453 11.616 48.9041 10.5645 48.7294H10.5463C5.7884 47.8815 1.5663 43.6594 0.72515 38.8996V38.8813C0.547509 37.8337 0.406356 36.7996 0.289209 35.7193C0.23713 35.2383 0.378286 34.7562 0.681625 34.3792C0.984963 34.0022 1.42564 33.7612 1.9067 33.7091C2.38777 33.657 2.86982 33.7982 3.24681 34.1015C3.6238 34.4048 3.86485 34.8455 3.91693 35.3266C4.02639 36.3339 4.15794 37.2979 4.32022 38.2754C4.59964 39.8425 5.46384 41.4134 6.74766 42.7001C8.03148 43.9868 9.60528 44.8529 11.1724 45.1276C12.1499 45.2898 13.1139 45.4224 14.1212 45.5309C14.5869 45.5788 15.0163 45.8039 15.3206 46.1596C15.6249 46.5153 15.7809 46.9744 15.7562 47.4418C15.7316 47.9093 15.5281 48.3494 15.1881 48.6711C14.848 48.9928 14.3973 49.1714 13.9292 49.1701L13.9272 49.1739Z" fill="white"/>
<path d="M9.35938 30.947C9.35969 29.0481 10.0205 27.2084 11.2285 25.7433C12.4365 24.2782 14.1164 23.2789 15.9805 22.9166C17.8445 22.5544 19.7765 22.8517 21.4453 23.7578C23.1141 24.6638 24.4158 26.1221 25.1273 27.8826C29.2276 27.6092 33.3413 27.5999 37.4429 27.8548C37.9181 27.8833 38.375 28.1252 38.7059 28.5069C39.2126 29.091 39.7187 29.655 40.2242 30.199C40.4161 30.4009 40.5232 30.6688 40.5232 30.9473C40.5232 31.2259 40.4161 31.4938 40.2242 31.6957C39.7184 32.2371 39.2127 32.8034 38.7059 33.3871C38.375 33.7688 37.9177 34.0104 37.4408 34.0399C37.2138 34.0539 36.9868 34.0672 36.7599 34.0798C36.5875 34.0895 36.4174 34.037 36.2806 33.9317C35.945 33.6763 35.6091 33.4153 35.2728 33.1487C34.7592 32.7415 34.0411 32.8583 33.6443 33.4325C32.9176 34.4876 31.5337 34.5055 30.8046 33.4548L30.7977 33.4479C30.3992 32.8762 29.6801 32.7652 29.1674 33.1858C28.8365 33.4567 28.5056 33.7244 28.1748 33.9887C28.0389 34.0989 27.8676 34.1559 27.6928 34.1492C26.8373 34.1155 25.982 34.0701 25.1269 34.0131C24.4152 35.7736 23.1134 37.2317 21.4445 38.1375C19.7756 39.0434 17.8436 39.3405 15.9796 38.9781C14.1156 38.6156 12.4357 37.6161 11.2279 36.1509C10.0201 34.6856 9.35949 32.8459 9.35938 30.947ZM14.6244 33.2098C15.0718 33.2097 15.5091 33.077 15.8811 32.8283C16.2531 32.5797 16.5429 32.2264 16.7141 31.813C16.8853 31.3997 16.93 30.9448 16.8427 30.506C16.7554 30.0672 16.54 29.6641 16.2236 29.3478C15.9072 29.0314 15.5042 28.816 15.0654 28.7287C14.6266 28.6413 14.1717 28.6861 13.7584 28.8573C13.345 29.0284 12.9917 29.3183 12.743 29.6903C12.4944 30.0623 12.3617 30.4996 12.3616 30.947C12.3615 31.2442 12.42 31.5385 12.5337 31.813C12.6474 32.0876 12.8141 32.3371 13.0242 32.5472C13.2343 32.7573 13.4838 32.924 13.7584 33.0377C14.0329 33.1514 14.3272 33.2099 14.6244 33.2098Z" fill="white"/>
<path d="M12.7006 13.7299V17.3699C12.7006 18.8752 13.9252 20.0998 15.4305 20.0998C16.9359 20.0998 18.1605 18.8752 18.1605 17.3699V13.7299C18.1605 12.2246 16.9359 11 15.4305 11C13.9252 11 12.7006 12.2246 12.7006 13.7299ZM16.3405 13.7299V17.3699C16.3405 17.8719 15.9326 18.2798 15.4305 18.2798C14.9285 18.2798 14.5205 17.8719 14.5205 17.3699V13.7299C14.5205 13.2279 14.9285 12.82 15.4305 12.82C15.9326 12.82 16.3405 13.2279 16.3405 13.7299ZM9.90998 20.0998C10.413 20.0998 10.82 19.6928 10.82 19.1898V11.91C10.82 11.407 10.413 11 9.90998 11C9.407 11 9 11.407 9 11.91V19.1898C9 19.6928 9.407 20.0998 9.90998 20.0998ZM32.7202 17.3699V13.7299C32.7202 12.2246 31.4956 11 29.9902 11C28.4849 11 27.2603 12.2246 27.2603 13.7299V17.3699C27.2603 18.8752 28.4849 20.0998 29.9902 20.0998C31.4956 20.0998 32.7202 18.8752 32.7202 17.3699ZM29.0802 17.3699V13.7299C29.0802 13.2279 29.4881 12.82 29.9902 12.82C30.4923 12.82 30.9002 13.2279 30.9002 13.7299V17.3699C30.9002 17.8719 30.4923 18.2798 29.9902 18.2798C29.4881 18.2798 29.0802 17.8719 29.0802 17.3699ZM19.9804 11.91V19.1898C19.9804 19.6928 20.3874 20.0998 20.8904 20.0998C21.3934 20.0998 21.8004 19.6928 21.8004 19.1898V11.91C21.8004 11.407 21.3934 11 20.8904 11C20.3874 11 19.9804 11.407 19.9804 11.91ZM23.6204 11.91V19.1898C23.6204 19.6928 24.0274 20.0998 24.5303 20.0998C25.0333 20.0998 25.4403 19.6928 25.4403 19.1898V11.91C25.4403 11.407 25.0333 11 24.5303 11C24.0274 11 23.6204 11.407 23.6204 11.91ZM36.3601 19.1898V11.91C36.3601 11.407 35.9531 11 35.4501 11C34.9471 11 34.5401 11.407 34.5401 11.91V19.1898C34.5401 19.6928 34.9471 20.0998 35.4501 20.0998C35.9531 20.0998 36.3601 19.6928 36.3601 19.1898ZM39.09 11C38.587 11 38.18 11.407 38.18 11.91V19.1898C38.18 19.6928 38.587 20.0998 39.09 20.0998C39.593 20.0998 40 19.6928 40 19.1898V11.91C40 11.407 39.593 11 39.09 11Z" fill="white"/>
</svg>
