<svg width="829" height="586" viewBox="0 0 829 586" fill="none" xmlns="http://www.w3.org/2000/svg">
<g opacity="0.8">
<path d="M532.657 459.509C453.214 461.574 271.164 423.962 178.514 256.994C122.675 183.091 25.5005 149 25.5005 149L8.00019 15.5116C187.382 17.9302 310.621 92.851 349.818 130.009C385.521 153.252 444.626 221.484 395.42 308.473C346.214 395.462 466.409 445.409 532.657 459.509Z" fill="#6C0650" fill-opacity="0.6" stroke="black" stroke-width="0.592329"/>
<path d="M808.587 570.418C724.497 572.215 527.707 524.249 413.262 318.005C346.873 226.579 404.274 210.202 442.851 216.284C541.141 190.102 209.001 19.3772 209.001 19.3772C399.559 24.0302 537.559 117.338 582.739 163.411C622.867 192.334 692.174 276.816 648.377 383.355C604.579 489.894 736.935 552.455 808.587 570.418Z" fill="#001C5C" stroke="black" stroke-width="0.592329"/>
</g>
</svg>
