<svg width="72" height="72" viewBox="0 0 72 72" fill="none" xmlns="http://www.w3.org/2000/svg">
<path d="M3.58613 22.5129C3.49053 22.5126 3.395 22.5076 3.29991 22.4977C2.95688 22.4601 2.62461 22.3554 2.32207 22.1894C2.01953 22.0234 1.75265 21.7995 1.53667 21.5304C1.3207 21.2612 1.15986 20.9522 1.06335 20.6209C0.966831 20.2896 0.936531 19.9425 0.974176 19.5995C1.14287 18.0453 1.34613 16.5575 1.59778 15.0434V15.0185C2.81319 8.16718 8.89301 2.08736 15.7444 0.876099H15.7707C17.2833 0.618913 18.7739 0.415654 20.3267 0.25111C21.0194 0.176116 21.7136 0.379381 22.2565 0.816188C22.7993 1.253 23.1464 1.88757 23.2214 2.5803C23.2964 3.27303 23.0932 3.96719 22.6564 4.51005C22.2195 5.05292 21.585 5.40003 20.8922 5.47502C19.4716 5.62864 18.0556 5.82229 16.6459 6.05576C14.3893 6.45399 12.1272 7.69567 10.2743 9.54851C8.4215 11.4014 7.1812 13.6635 6.77883 15.9201C6.54515 17.3263 6.35157 18.7159 6.19809 20.1623C6.1298 20.8074 5.82519 21.4045 5.34294 21.8385C4.86069 22.2725 4.23491 22.5127 3.58613 22.5129ZM69.1187 22.535C68.4715 22.5344 67.8473 22.2948 67.3658 21.8623C66.8843 21.4298 66.5794 20.8348 66.5095 20.1913C66.3533 18.7422 66.1638 17.3526 65.9302 15.9464C65.5319 13.6884 64.2875 11.4262 62.4333 9.5734C60.579 7.72056 58.3183 6.47334 56.0617 6.07789C54.6522 5.84306 53.2362 5.6494 51.8154 5.49714C51.1226 5.42215 50.4881 5.07504 50.0513 4.53218C49.6144 3.98931 49.4112 3.29516 49.4862 2.60242C49.5612 1.90969 49.9083 1.27512 50.4511 0.838312C50.994 0.401504 51.6882 0.198239 52.3809 0.273233C53.9337 0.440542 55.4229 0.645185 56.937 0.89684H56.9632C63.816 2.11225 69.8958 8.19206 71.1057 15.0462V15.0725C71.3573 16.5838 71.562 18.0744 71.7293 19.6354C71.8014 20.326 71.5973 21.017 71.1615 21.5574C70.7257 22.0979 70.0937 22.4439 69.4036 22.5198C69.309 22.5303 69.2139 22.5353 69.1187 22.535ZM52.0947 71.0657C51.4229 71.0642 50.7771 70.8054 50.2902 70.3426C49.8033 69.8797 49.5123 69.2479 49.4768 68.577C49.4414 67.9061 49.6644 67.2472 50.0998 66.7356C50.5353 66.224 51.1502 65.8987 51.8181 65.8265C53.2686 65.6689 54.6582 65.4795 56.0631 65.2458C58.3211 64.8434 60.5832 63.6031 62.436 61.7489C64.2889 59.8947 65.5319 57.6339 65.9302 55.3773C66.1638 53.9697 66.3533 52.5815 66.5095 51.1324C66.5845 50.4397 66.9316 49.8051 67.4745 49.3683C68.0174 48.9315 68.7115 48.7282 69.4042 48.8032C70.097 48.8782 70.7315 49.2253 71.1684 49.7682C71.6052 50.311 71.8084 51.0052 71.7334 51.6979C71.5661 53.2521 71.3615 54.7399 71.1098 56.254V56.2803C69.8999 63.1316 63.8201 69.2114 56.9674 70.4213H56.9425C55.4277 70.6725 53.9061 70.8805 52.3795 71.0449C52.285 71.0566 52.1899 71.0635 52.0947 71.0657ZM20.6129 71.0463C20.5173 71.0462 20.4217 71.0407 20.3267 71.0297C18.7712 70.861 17.2847 70.6578 15.7707 70.4061H15.7444C8.89301 69.1852 2.81319 63.1054 1.60193 56.2512V56.225C1.34613 54.7164 1.14287 53.2272 0.974176 51.6717C0.899182 50.9789 1.10245 50.2848 1.53925 49.7419C1.97606 49.199 2.61063 48.8519 3.30337 48.7769C3.9961 48.7019 4.69025 48.9052 5.23312 49.342C5.77598 49.7788 6.12309 50.4134 6.19809 51.1061C6.35572 52.5566 6.54515 53.9448 6.77883 55.3525C7.1812 57.6091 8.42565 59.8712 10.2743 61.724C12.123 63.5769 14.3893 64.8241 16.6459 65.2195C18.0535 65.4532 19.4418 65.644 20.8922 65.8003C21.5628 65.8693 22.1811 66.1935 22.6194 66.7057C23.0576 67.2179 23.2822 67.8789 23.2467 68.5521C23.2112 69.2252 22.9182 69.859 22.4285 70.3222C21.9388 70.7854 21.2898 71.0427 20.6157 71.0408L20.6129 71.0463Z" fill="white"/>
<path d="M37.1596 42.1873C40.3404 42.1873 42.9189 39.6088 42.9189 36.4281C42.9189 33.2473 40.3404 30.6688 37.1596 30.6688C33.9789 30.6688 31.4004 33.2473 31.4004 36.4281C31.4004 39.6088 33.9789 42.1873 37.1596 42.1873Z" fill="white"/>
<path d="M52.3732 38.5806C51.887 38.8072 51.452 39.1303 51.0945 39.5303L45.1284 37.5022C44.9902 38.5353 44.6513 39.5314 44.1306 40.4344L50.0992 42.4633C50.1613 43.3057 50.4912 44.1063 51.0407 44.7479C51.5901 45.3896 52.3303 45.8388 53.1531 46.03C53.976 46.2211 54.8384 46.1441 55.6144 45.8103C56.3904 45.4765 57.0394 44.9033 57.4665 44.1745C57.8937 43.4457 58.0766 42.5994 57.9886 41.7592C57.9006 40.9191 57.5463 40.129 56.9774 39.5045C56.4086 38.88 55.6549 38.4538 54.8266 38.288C53.9983 38.1222 53.1386 38.2256 52.3732 38.583V38.5806ZM21.9472 26.3103C22.0083 26.2818 22.0686 26.2517 22.1272 26.2207L30.0603 32.6552C30.5513 31.7365 31.215 30.9212 32.0151 30.2541L24.0763 23.8164C24.3259 22.9472 24.2704 22.0187 23.9191 21.1854C23.5678 20.3521 22.9418 19.6641 22.1452 19.236C21.3486 18.8079 20.4294 18.6654 19.5406 18.8322C18.6518 18.999 17.8468 19.4651 17.2597 20.1529C16.6725 20.8407 16.3385 21.7087 16.3132 22.6127C16.2879 23.5167 16.5728 24.4021 17.1206 25.1217C17.6684 25.8413 18.446 26.3516 19.3241 26.5679C20.2022 26.7841 21.1279 26.6932 21.9472 26.3103ZM42.5546 47.6866L41.1276 43.4187C40.2237 43.9346 39.2276 44.2685 38.1954 44.4018L39.6208 48.6672C39.5393 48.7275 39.4644 48.7894 39.3887 48.8546C38.5381 49.5896 37.9725 50.5998 37.7904 51.7091C37.6084 52.8185 37.8216 53.9565 38.3927 54.9248C38.9638 55.893 39.8567 56.6301 40.9156 57.0075C41.9745 57.3849 43.1323 57.3786 44.1871 56.9898C45.2418 56.601 46.1267 55.8543 46.6873 54.8799C47.2479 53.9055 47.4487 52.7652 47.2547 51.6579C47.0606 50.5506 46.4841 49.5466 45.6256 48.8208C44.7671 48.095 43.6811 47.6936 42.557 47.6866H42.5546ZM43.8317 31.9482L51.2167 24.5633C52.2215 25.0507 53.3666 25.1664 54.4486 24.8897C55.5307 24.6131 56.4797 23.962 57.1273 23.0521C57.7749 22.1421 58.0791 21.0322 57.9861 19.9192C57.893 18.8062 57.4086 17.7622 56.6189 16.9725C55.8291 16.1828 54.7851 15.6984 53.6722 15.6053C52.5592 15.5122 51.4493 15.8165 50.5393 16.4641C49.6294 17.1117 48.9783 18.0607 48.7017 19.1427C48.425 20.2248 48.5407 21.3699 49.0281 22.3747L41.6399 29.7564C42.5046 30.3393 43.2488 31.0835 43.8317 31.9482ZM30.4961 40.9214L22.3699 49.0745C21.4481 48.6658 20.4122 48.5928 19.4422 48.868C18.4721 49.1433 17.629 49.7495 17.0591 50.5814C16.4893 51.4133 16.2286 52.4184 16.3224 53.4224C16.4162 54.4264 16.8585 55.3659 17.5726 56.0779C18.2867 56.7898 19.2275 57.2293 20.2318 57.3202C21.236 57.411 22.2404 57.1473 23.0706 56.575C23.9008 56.0027 24.5045 55.1578 24.7768 54.1869C25.0492 53.216 24.9731 52.1804 24.5617 51.2597L32.6887 43.1067C31.8243 42.5258 31.0799 41.7839 30.4961 40.9214Z" fill="white"/>
</svg>
