<svg width="73" height="139" viewBox="0 0 73 139" fill="none" xmlns="http://www.w3.org/2000/svg">
<path d="M17.5791 40.359V54.3886H16.647C10.7801 54.3886 6.00977 59.1658 6.00977 65.0411V123.713C6.00977 129.588 10.7801 134.365 16.647 134.365H98.4002C104.267 134.365 109.037 129.588 109.037 123.713V65.0137C109.037 59.1383 104.267 54.3611 98.4002 54.3611H98.1261V40.3316C98.1261 18.0929 80.0592 0 57.8526 0C35.646 0.0274551 17.5791 18.1204 17.5791 40.359ZM63.8292 96.9714C63.0067 97.5755 62.7874 98.152 62.7874 99.1129C62.8148 103.423 62.8148 107.706 62.8148 112.017C62.8971 113.801 61.9924 115.559 60.4022 116.355C56.6463 118.277 52.8904 115.586 52.8904 112.017V111.989C52.8904 107.679 52.8904 103.368 52.9178 99.058C52.9178 98.1795 52.7259 97.6029 51.9583 97.0263C48.0652 94.1436 46.7767 89.2291 48.7232 84.9186C50.6149 80.718 55.2481 78.2471 59.6072 79.1256C64.4598 80.114 67.8319 84.0126 67.8867 88.8722C67.8867 92.2492 66.5433 94.9947 63.8292 96.9714ZM35.2073 40.359C35.2073 27.8395 45.3785 17.6811 57.8526 17.6811C70.3541 17.6811 80.4979 27.8669 80.4979 40.359V54.3886H35.2073V40.359Z" fill="url(#paint0_linear_212_2865)" fill-opacity="0.5"/>
<path d="M11.5684 44.652V58.6815H10.6363C4.76933 58.6815 -0.000976562 63.4587 -0.000976562 69.3341V128.006C-0.000976562 133.881 4.76933 138.658 10.6363 138.658H92.3895C98.2564 138.658 103.027 133.881 103.027 128.006V69.3067C103.027 63.4313 98.2564 58.6541 92.3895 58.6541H92.1153V44.6245C92.1153 22.3859 74.0485 4.29297 51.8419 4.29297C29.6353 4.32042 11.5684 22.4133 11.5684 44.652ZM57.8185 101.264C56.996 101.868 56.7767 102.445 56.7767 103.406C56.8041 107.716 56.8041 111.999 56.8041 116.31C56.8863 118.094 55.9816 119.852 54.3915 120.648C50.6356 122.57 46.8796 119.879 46.8796 116.31V116.282C46.8796 111.972 46.8796 107.661 46.9071 103.351C46.9071 102.472 46.7151 101.896 45.9475 101.319C42.0545 98.4365 40.766 93.5221 42.7125 89.2116C44.6042 85.011 49.2374 82.54 53.5965 83.4186C58.449 84.407 61.8211 88.3056 61.876 93.1652C61.876 96.5421 60.5326 99.2876 57.8185 101.264ZM29.1966 44.652C29.1966 32.1324 39.3678 21.9741 51.8419 21.9741C64.3434 21.9741 74.4871 32.1599 74.4871 44.652V58.6815H29.1966V44.652Z" fill="url(#paint1_linear_212_2865)"/>
<defs>
<linearGradient id="paint0_linear_212_2865" x1="0.214457" y1="80.2757" x2="109.033" y2="97.6874" gradientUnits="userSpaceOnUse">
<stop stop-color="#B7004D"/>
<stop offset="1" stop-color="#0469FF"/>
</linearGradient>
<linearGradient id="paint1_linear_212_2865" x1="-19.3187" y1="95.7301" x2="103.027" y2="95.759" gradientUnits="userSpaceOnUse">
<stop stop-color="#B7004D"/>
<stop offset="1" stop-color="#0469FF" stop-opacity="0.9"/>
</linearGradient>
</defs>
</svg>
