<svg width="151" height="192" viewBox="0 0 151 192" fill="none" xmlns="http://www.w3.org/2000/svg">
<path d="M24.4714 56.3544V75.7126H23.1852C15.09 75.7126 8.50781 82.3042 8.50781 90.4112V171.367C8.50781 179.474 15.09 186.066 23.1852 186.066H135.989C144.085 186.066 150.667 179.474 150.667 171.367V90.3733C150.667 82.2663 144.085 75.6747 135.989 75.6747H135.611V56.3165C135.611 25.6314 110.682 0.666504 80.0413 0.666504C49.4003 0.704387 24.4714 25.6692 24.4714 56.3544ZM88.2879 134.469C87.153 135.302 86.8504 136.098 86.8504 137.424C86.8882 143.372 86.8882 149.281 86.8882 155.229C87.0017 157.691 85.7534 160.116 83.5593 161.214C78.3768 163.866 73.1943 160.154 73.1943 155.229V155.191C73.1943 149.243 73.1943 143.296 73.2322 137.348C73.2322 136.136 72.9674 135.34 71.9082 134.545C66.5365 130.567 64.7586 123.786 67.4444 117.838C70.0546 112.042 76.4476 108.633 82.4623 109.845C89.1579 111.209 93.8108 116.588 93.8865 123.294C93.8865 127.953 92.0329 131.741 88.2879 134.469ZM48.795 56.3544C48.795 39.0798 62.8294 25.0631 80.0413 25.0631C97.291 25.0631 111.288 39.1177 111.288 56.3544V75.7126H48.795V56.3544Z" fill="url(#paint0_linear_375_146)" fill-opacity="0.5"/>
<path d="M16.1784 62.2775V81.6357H14.8923C6.79698 81.6357 0.214844 88.2273 0.214844 96.3343V177.29C0.214844 185.397 6.79698 191.989 14.8923 191.989H127.696C135.792 191.989 142.374 185.397 142.374 177.29V96.2964C142.374 88.1894 135.792 81.5978 127.696 81.5978H127.318V62.2396C127.318 31.5545 102.389 6.5896 71.7483 6.5896C41.1073 6.62748 16.1784 31.5923 16.1784 62.2775ZM79.9949 140.392C78.86 141.226 78.5574 142.021 78.5574 143.347C78.5952 149.295 78.5952 155.204 78.5952 161.152C78.7087 163.614 77.4604 166.039 75.2663 167.137C70.0839 169.789 64.9014 166.077 64.9014 161.152V161.114C64.9014 155.166 64.9014 149.219 64.9392 143.271C64.9392 142.059 64.6744 141.263 63.6152 140.468C58.2436 136.49 56.4656 129.709 59.1515 123.762C61.7616 117.965 68.1546 114.556 74.1693 115.768C80.8649 117.132 85.5178 122.511 85.5935 129.217C85.5935 133.876 83.7399 137.665 79.9949 140.392ZM40.5021 62.2775C40.5021 45.0029 54.5364 30.9862 71.7483 30.9862C88.998 30.9862 102.995 45.0408 102.995 62.2775V81.6357H40.5021V62.2775Z" fill="url(#paint1_linear_375_146)"/>
<defs>
<linearGradient id="paint0_linear_375_146" x1="0.511367" y1="111.432" x2="150.661" y2="135.457" gradientUnits="userSpaceOnUse">
<stop stop-color="#B7004D"/>
<stop offset="1" stop-color="#0469FF"/>
</linearGradient>
<linearGradient id="paint1_linear_375_146" x1="-26.44" y1="132.756" x2="142.374" y2="132.796" gradientUnits="userSpaceOnUse">
<stop stop-color="#B7004D"/>
<stop offset="1" stop-color="#0469FF" stop-opacity="0.9"/>
</linearGradient>
</defs>
</svg>
