<svg width="102" height="33" viewBox="0 0 102 33" fill="none" xmlns="http://www.w3.org/2000/svg">
<path d="M52.4198 18.1969H51.3198L45.7918 7.76758H41.54V25.3587H45.3667V16.1613H46.6173L50.3692 23.6504H53.3704L57.1223 16.1613H58.3729V25.3587H62.1996V7.76758H57.9478L52.4198 18.1969Z" fill="#F5F6F9"/>
<path fill-rule="evenodd" clip-rule="evenodd" d="M96.0013 14.4271H89.1475V11.5374H100.74V7.76758H85.1543V25.3587H96.0013C99.867 25.3587 101.911 23.1728 101.911 19.8806C101.911 16.5884 99.6181 14.4271 96.0013 14.4271ZM95.6779 21.7134H89.1475V18.0714H95.6817C97.177 18.0714 97.8748 18.5736 97.8748 19.8806C97.8748 21.1876 97.1742 21.7156 95.6779 21.7156V21.7134Z" fill="#F5F6F9"/>
<path d="M78.524 7.76758H83.4472L75.43 16.2779L83.6499 25.3587H78.5488L72.2357 18.3225H70.0147V25.3587H65.9746V7.76758H70.0147V14.5527H72.2357L78.524 7.76758Z" fill="#F5F6F9"/>
<path fill-rule="evenodd" clip-rule="evenodd" d="M0 16.5C0 7.3873 7.4663 0 16.579 0C25.6917 0 33.158 7.3873 33.158 16.5C33.158 25.6127 25.6917 33 16.579 33C7.4663 33 0 25.6127 0 16.5ZM12.7453 16.5002L18.5475 10.9318L28.2353 10.9487L24.7643 14.644H19.9981L12.7453 22.0687L4.6635 13.8191L7.56464 10.9318H12.8459L10.0513 13.8191L12.7453 16.5002ZM28.4945 15.675H20.4128L13.9888 22.0684H19.1695L22.0705 19.1811H24.7645L28.4945 15.675Z" fill="#F5F6F9"/>
</svg>
