<svg width="50" height="51" viewBox="0 0 50 51" fill="none" xmlns="http://www.w3.org/2000/svg">
<path d="M2.10307 16.3593C2.03668 16.3592 1.97034 16.3556 1.9043 16.3488C1.66609 16.3227 1.43534 16.25 1.22524 16.1347C1.01515 16.0194 0.829814 15.8639 0.679832 15.677C0.529849 15.4901 0.418157 15.2755 0.351133 15.0454C0.284109 14.8154 0.263067 14.5743 0.289209 14.3361C0.406356 13.2569 0.547509 12.2237 0.722269 11.1722V11.1549C1.5663 6.39703 5.7884 2.17494 10.5463 1.33378H10.5645C11.615 1.15518 12.6501 1.01403 13.7285 0.899764C14.2095 0.847685 14.6916 0.988841 15.0686 1.29218C15.4456 1.59552 15.6866 2.03619 15.7387 2.51726C15.7908 2.99832 15.6496 3.48037 15.3463 3.85736C15.0429 4.23435 14.6023 4.4754 14.1212 4.52748C13.1347 4.63416 12.1513 4.76864 11.1724 4.93077C9.60528 5.20732 8.03436 6.0696 6.74766 7.35629C5.46096 8.64299 4.59964 10.2139 4.32022 11.781C4.15794 12.7575 4.02351 13.7226 3.91693 14.727C3.8695 15.175 3.65797 15.5896 3.32307 15.891C2.98818 16.1924 2.55361 16.3592 2.10307 16.3593ZM47.6118 16.3747C47.1623 16.3742 46.7289 16.2079 46.3945 15.9075C46.0601 15.6072 45.8484 15.194 45.7999 14.7471C45.6914 13.7408 45.5598 12.7758 45.3975 11.7992C45.121 10.2312 44.2568 8.66027 42.9691 7.37358C41.6815 6.08688 40.1115 5.22076 38.5444 4.94614C37.5656 4.78307 36.5822 4.64858 35.5956 4.54284C35.1145 4.49076 34.6739 4.24972 34.3705 3.87273C34.0672 3.49574 33.926 3.01369 33.9781 2.53262C34.0302 2.05156 34.2712 1.61088 34.6482 1.30754C35.0252 1.0042 35.5073 0.863049 35.9883 0.915128C37.0667 1.03131 38.1008 1.17343 39.1522 1.34819H39.1705C43.9294 2.19222 48.1514 6.41432 48.9916 11.1741V11.1924C49.1664 12.2419 49.3085 13.277 49.4247 14.3611C49.4748 14.8406 49.333 15.3205 49.0304 15.6958C48.7278 16.0711 48.2889 16.3114 47.8096 16.3641C47.7439 16.3714 47.6779 16.3749 47.6118 16.3747ZM35.7896 50.0765C35.323 50.0755 34.8746 49.8958 34.5365 49.5744C34.1983 49.2529 33.9962 48.8142 33.9716 48.3483C33.947 47.8824 34.1018 47.4248 34.4043 47.0695C34.7067 46.7143 35.1337 46.4884 35.5975 46.4383C36.6048 46.3288 37.5698 46.1972 38.5454 46.035C40.1134 45.7555 41.6844 44.8942 42.9711 43.6066C44.2577 42.3189 45.121 40.7489 45.3975 39.1819C45.5598 38.2044 45.6914 37.2403 45.7999 36.234C45.8519 35.7529 46.093 35.3122 46.47 35.0089C46.847 34.7056 47.329 34.5644 47.8101 34.6165C48.2912 34.6686 48.7318 34.9096 49.0352 35.2866C49.3385 35.6636 49.4797 36.1457 49.4276 36.6267C49.3114 37.706 49.1693 38.7392 48.9945 39.7906V39.8089C48.1543 44.5668 43.9322 48.7889 39.1734 49.6291H39.1561C38.1042 49.8035 37.0475 49.9479 35.9874 50.0621C35.9217 50.0703 35.8557 50.0751 35.7896 50.0765ZM13.9272 50.0631C13.8608 50.063 13.7945 50.0592 13.7285 50.0516C12.6482 49.9344 11.616 49.7933 10.5645 49.6185H10.5463C5.7884 48.7706 1.5663 44.5485 0.72515 39.7887V39.7705C0.547509 38.7229 0.406356 37.6887 0.289209 36.6085C0.23713 36.1274 0.378286 35.6454 0.681625 35.2684C0.984963 34.8914 1.42564 34.6503 1.9067 34.5983C2.38777 34.5462 2.86982 34.6873 3.24681 34.9907C3.6238 35.294 3.86485 35.7347 3.91693 36.2157C4.02639 37.223 4.15794 38.1871 4.32022 39.1646C4.59964 40.7317 5.46384 42.3026 6.74766 43.5893C8.03148 44.876 9.60528 45.7421 11.1724 46.0167C12.1499 46.179 13.1139 46.3115 14.1212 46.42C14.5869 46.468 15.0163 46.6931 15.3206 47.0488C15.6249 47.4044 15.7809 47.8635 15.7562 48.331C15.7316 48.7985 15.5281 49.2386 15.1881 49.5602C14.848 49.8819 14.3973 50.0606 13.9292 50.0593L13.9272 50.0631Z" fill="white"/>
<path d="M25.4793 8.10148C25.1741 7.96617 24.8259 7.96617 24.5207 8.10148L11.7008 13.7865C11.2746 13.9755 11 14.3971 11 14.8625V23.4098C11 31.9235 16.835 39.8914 24.7204 41.9639C24.9034 42.012 25.0966 42.012 25.2796 41.9639C33.165 39.8914 39 31.9235 39 23.4098V14.8625C39 14.3971 38.7254 13.9755 38.2992 13.7865L25.4793 8.10148ZM35.8889 23.4098C35.8889 26.2811 35.0956 29.0748 33.7422 31.4961L31.4867 29.2456C32.475 27.7535 32.9159 25.9664 32.7344 24.1871C32.553 22.4078 31.7604 20.7458 30.4911 19.483C27.4578 16.4564 22.5267 16.4564 19.4933 19.483C16.46 22.5095 16.46 27.4296 19.4933 30.4562C20.7608 31.7195 22.4261 32.5082 24.2085 32.6891C25.9909 32.8701 27.7812 32.4323 29.2778 31.4495L31.9533 34.1191C30.1815 36.2287 27.9108 37.869 25.3459 38.727C25.1216 38.8021 24.8786 38.8013 24.6546 38.7251C18.5767 36.6576 14.1111 30.2954 14.1111 23.4098V16.8803C14.1111 16.4149 14.3858 15.9932 14.8121 15.8043L24.5209 11.5004C24.8259 11.3652 25.1741 11.3652 25.4791 11.5004L35.1879 15.8043C35.6142 15.9932 35.8889 16.4149 35.8889 16.8803V23.4098ZM25 29.6181C22.4178 29.6181 20.3333 27.5383 20.3333 24.9618C20.3333 22.3854 22.4178 20.3056 25 20.3056C27.5822 20.3056 29.6667 22.3854 29.6667 24.9618C29.6667 27.5383 27.5822 29.6181 25 29.6181Z" fill="white"/>
<path fill-rule="evenodd" clip-rule="evenodd" d="M28.0877 22.5173C28.4632 22.8295 28.5139 23.3864 28.201 23.761L24.6304 28.0362L22.1749 25.5863C21.8293 25.2414 21.8293 24.6823 22.1749 24.3374C22.5206 23.9926 23.081 23.9926 23.4266 24.3374L24.5114 25.4198L26.8412 22.6304C27.1541 22.2557 27.7122 22.2051 28.0877 22.5173Z" fill="white"/>
</svg>
