<svg width="50" height="50" viewBox="0 0 50 50" fill="none" xmlns="http://www.w3.org/2000/svg">
<path d="M1.82475 15.4702C1.75836 15.47 1.69202 15.4665 1.62598 15.4596C1.38777 15.4335 1.15702 15.3608 0.946924 15.2455C0.736826 15.1303 0.551493 14.9748 0.401511 14.7879C0.251529 14.601 0.139836 14.3864 0.0728124 14.1563C0.00578841 13.9262 -0.0152535 13.6852 0.0108886 13.447C0.128036 12.3677 0.269188 11.3345 0.443949 10.2831V10.2658C1.28798 5.50787 5.51008 1.28578 10.268 0.444624H10.2862C11.3367 0.266023 12.3718 0.124871 13.4502 0.0106043C13.9312 -0.041475 14.4133 0.099681 14.7903 0.40302C15.1672 0.706359 15.4083 1.14703 15.4604 1.6281C15.5125 2.10916 15.3713 2.59121 15.068 2.9682C14.7646 3.34519 14.3239 3.58624 13.8429 3.63832C12.8563 3.745 11.873 3.87948 10.894 4.04161C9.32696 4.31816 7.75604 5.18044 6.46934 6.46713C5.18264 7.75383 4.32132 9.32475 4.0419 10.8918C3.87962 11.8684 3.74519 12.8334 3.63861 13.8378C3.59118 14.2858 3.37965 14.7005 3.04475 15.0019C2.70986 15.3033 2.27529 15.4701 1.82475 15.4702ZM47.3335 15.4855C46.884 15.4851 46.4505 15.3187 46.1162 15.0184C45.7818 14.718 45.57 14.3048 45.5215 13.858C45.413 12.8516 45.2815 11.8866 45.1192 10.9101C44.8427 9.34204 43.9785 7.77111 42.6908 6.48442C41.4032 5.19772 39.8332 4.3316 38.2661 4.05698C37.2873 3.89391 36.3039 3.75942 35.3173 3.65368C34.8362 3.6016 34.3955 3.36056 34.0922 2.98357C33.7889 2.60658 33.6477 2.12453 33.6998 1.64346C33.7519 1.1624 33.9929 0.721722 34.3699 0.418383C34.7469 0.115045 35.2289 -0.0261115 35.71 0.0259678C36.7883 0.142155 37.8225 0.284267 38.8739 0.459028H38.8922C43.651 1.30306 47.8731 5.52516 48.7133 10.285V10.3032C48.8881 11.3527 49.0302 12.3879 49.1464 13.4719C49.1965 13.9515 49.0547 14.4313 48.7521 14.8067C48.4494 15.182 48.0105 15.4223 47.5313 15.475C47.4656 15.4822 47.3996 15.4858 47.3335 15.4855ZM35.5112 49.1874C35.0447 49.1864 34.5963 49.0067 34.2582 48.6852C33.92 48.3638 33.7179 47.925 33.6933 47.4591C33.6687 46.9932 33.8235 46.5356 34.1259 46.1804C34.4283 45.8251 34.8554 45.5992 35.3192 45.5491C36.3265 45.4396 37.2915 45.3081 38.2671 45.1458C39.8351 44.8664 41.406 44.0051 42.6927 42.7174C43.9794 41.4298 44.8427 39.8598 45.1192 38.2927C45.2815 37.3152 45.413 36.3511 45.5215 35.3448C45.5736 34.8638 45.8147 34.4231 46.1917 34.1198C46.5687 33.8164 47.0507 33.6753 47.5318 33.7273C48.0128 33.7794 48.4535 34.0205 48.7569 34.3975C49.0602 34.7744 49.2013 35.2565 49.1493 35.7376C49.0331 36.8168 48.891 37.85 48.7162 38.9015V38.9197C47.876 43.6776 43.6539 47.8997 38.8951 48.7399H38.8778C37.8259 48.9144 36.7692 49.0588 35.709 49.173C35.6434 49.1811 35.5774 49.1859 35.5112 49.1874ZM13.6489 49.1739C13.5825 49.1739 13.5161 49.17 13.4502 49.1624C12.3699 49.0453 11.3377 48.9041 10.2862 48.7294H10.268C5.51008 47.8815 1.28798 43.6594 0.446829 38.8996V38.8813C0.269188 37.8337 0.128036 36.7996 0.0108886 35.7193C-0.0411907 35.2383 0.0999654 34.7562 0.403304 34.3792C0.706643 34.0022 1.14732 33.7612 1.62838 33.7091C2.10945 33.657 2.5915 33.7982 2.96849 34.1015C3.34548 34.4048 3.58653 34.8455 3.63861 35.3266C3.74807 36.3339 3.87962 37.2979 4.0419 38.2754C4.32132 39.8425 5.18552 41.4134 6.46934 42.7001C7.75316 43.9868 9.32696 44.8529 10.894 45.1276C11.8715 45.2898 12.8356 45.4224 13.8429 45.5309C14.3085 45.5788 14.7379 45.8039 15.0423 46.1596C15.3466 46.5153 15.5026 46.9744 15.4779 47.4418C15.4532 47.9093 15.2498 48.3494 14.9097 48.6711C14.5697 48.9928 14.119 49.1714 13.6508 49.1701L13.6489 49.1739Z" fill="white"/>
<path d="M9.16 32L9.44 15.8H12.94L14.94 26.02L17.08 15.8H20.46L20.74 32H18.34L18.08 21.02L16.02 32H13.96L11.8 20.94L11.58 32H9.16ZM23.1263 32V15.8H29.9663V18.04H26.4263V22.42H29.4263V24.72H26.4263V32H23.1263ZM30.1388 32L33.2788 15.8H36.9388L40.0588 32H36.9988L36.4188 28.44H33.8588L33.2388 32H30.1388ZM34.1588 26.42H36.0988L35.1188 19.88L34.1588 26.42Z" fill="white"/>
</svg>
