<svg width="50" height="50" viewBox="0 0 50 50" fill="none" xmlns="http://www.w3.org/2000/svg">
<g filter="url(#filter0_b_705_318)">
<path d="M0 25C0 11.1929 11.1929 0 25 0C38.8071 0 50 11.1929 50 25C50 38.8071 38.8071 50 25 50C11.1929 50 0 38.8071 0 25Z" fill="#B7004D"/>
</g>
<path d="M28.4637 18.3634C28.1066 17.9843 27.9122 17.4829 27.9214 16.9647C27.9306 16.4466 28.1428 15.9522 28.5133 15.5858C28.8837 15.2194 29.3835 15.0095 29.9073 15.0003C30.4311 14.9912 30.938 15.1835 31.3213 15.5368L39.4087 23.5368C39.7873 23.9118 40 24.4201 40 24.9501C40 25.4801 39.7873 25.9884 39.4087 26.3634L31.3213 34.3634C31.1362 34.5599 30.913 34.7175 30.665 34.8269C30.4169 34.9362 30.1492 34.9949 29.8777 34.9997C29.6063 35.0044 29.3366 34.955 29.0848 34.8544C28.8331 34.7538 28.6044 34.6041 28.4124 34.4142C28.2204 34.2243 28.0691 33.9981 27.9674 33.749C27.8657 33.5 27.8157 33.2333 27.8205 32.9647C27.8253 32.6962 27.8847 32.4313 27.9952 32.186C28.1058 31.9407 28.2651 31.7199 28.4637 31.5368L33.1005 26.9501H11.0219C10.4856 26.9501 9.97136 26.7394 9.59219 26.3643C9.21302 25.9893 9 25.4805 9 24.9501C9 24.4197 9.21302 23.911 9.59219 23.5359C9.97136 23.1608 10.4856 22.9501 11.0219 22.9501H33.1005L28.4637 18.3634Z" fill="white"/>
<defs>
<filter id="filter0_b_705_318" x="-32" y="-32" width="114" height="114" filterUnits="userSpaceOnUse" color-interpolation-filters="sRGB">
<feFlood flood-opacity="0" result="BackgroundImageFix"/>
<feGaussianBlur in="BackgroundImageFix" stdDeviation="16"/>
<feComposite in2="SourceAlpha" operator="in" result="effect1_backgroundBlur_705_318"/>
<feBlend mode="normal" in="SourceGraphic" in2="effect1_backgroundBlur_705_318" result="shape"/>
</filter>
</defs>
</svg>
