<svg width="248" height="50" viewBox="0 0 248 50" fill="none" xmlns="http://www.w3.org/2000/svg">
<g clip-path="url(#clip0_207_789)">
<mask id="mask0_207_789" style="mask-type:luminance" maskUnits="userSpaceOnUse" x="0" y="0" width="248" height="50">
<path d="M247.391 0.603516H0.887207V49.2219H247.391V0.603516Z" fill="white"/>
</mask>
<g mask="url(#mask0_207_789)">
<path d="M33.6113 26.9472C33.6113 15.5582 43.0548 6.32071 54.7102 6.30786V13.7661C47.2668 13.7752 41.2423 19.6743 41.2423 26.9472C41.2423 34.2201 47.2835 40.1375 54.7396 40.1375C62.1959 40.1375 68.2334 34.2842 68.2334 26.8995H75.8699C75.8699 38.3435 66.4135 47.5883 54.7414 47.5883C43.0696 47.5883 33.6113 38.3472 33.6113 26.9472Z" fill="white"/>
<path d="M45.416 26.9471C45.416 21.8918 49.6171 17.7922 54.7879 17.7922C59.9587 17.7922 64.1634 21.8918 64.1634 26.9471C64.1634 32.0023 59.9622 36.1038 54.7879 36.1038C49.6134 36.1038 45.416 32.006 45.416 26.9471Z" fill="white"/>
<path d="M61.2891 15.347C61.2891 12.447 63.6941 10.0991 66.6585 10.0991C69.623 10.0991 72.0318 12.447 72.0318 15.347C72.0318 18.247 69.6267 20.5986 66.6585 20.5986C63.6904 20.5986 61.2891 18.2433 61.2891 15.347Z" fill="white"/>
<path d="M226.28 20.5492L225.629 23.6785C224.097 30.491 223.529 32.6829 222.203 39.4533L221.908 39.6954L217.676 39.8165L217.472 39.534L219.174 32.5637L219.671 30.2764C217.854 30.2361 216.038 30.2066 214.221 30.2066C212.803 30.2066 211.725 30.2232 210.621 30.2525C209.997 33.0039 209.48 35.4105 208.681 39.457L208.387 39.699L204.154 39.8201L203.949 39.5377L205.653 32.5674L206.32 29.5279C207.438 24.7405 207.648 23.6895 208.312 19.2688L208.606 18.9864C210.081 18.8177 211.547 18.5728 212.997 18.2527L213.212 18.537L212.762 20.5547L212.119 23.6859L211.444 26.65C212.969 26.6867 214.493 26.7106 216.029 26.7106C217.646 26.7106 218.711 26.6793 220.508 26.6463C221.089 24.0527 221.327 22.6366 221.837 19.2743L222.129 18.9919C223.607 18.8232 225.076 18.5783 226.528 18.2582L226.735 18.5426L226.291 20.5602L226.28 20.5492Z" fill="white"/>
<path d="M175.309 29.6509C175.615 28.5094 175.781 27.3357 175.806 26.1548C175.806 22.0387 173.096 21.3434 171.554 21.3434C165.009 21.3434 164.169 31.2816 164.169 32.7875C164.169 36.0489 166.17 37.4778 168.424 37.4778C172.887 37.4778 174.551 32.9966 175.305 29.6509M179.646 30.922C178.727 34.4328 176.181 40.4988 168.343 40.4988C162.794 40.4988 159.752 37.6868 159.752 32.1474C159.757 31.3601 159.819 30.5744 159.935 29.7958C159.963 29.5886 159.995 29.3886 160.024 29.174C161.533 19.9897 165.606 11.2879 174.547 11.1981C175.736 11.1852 178.157 11.0642 179.798 10.6826L179.202 14.3512C177.545 14.7658 174.923 14.9822 173.393 14.9914C171.493 15.0115 170.182 15.7159 169.271 16.5725C168.859 16.9604 168.498 17.3986 168.198 17.8767C167.974 18.2262 167.769 18.5881 167.586 18.9607C168.874 18.5664 170.213 18.3667 171.559 18.3683C177.02 18.3683 180.272 21.3453 180.272 26.5969C180.25 28.057 180.042 29.5084 179.653 30.9165" fill="white"/>
<path d="M233.439 27.1619C234.434 26.3199 235.006 25.7916 236.384 24.4967C237.831 23.1191 241.352 19.544 242.023 18.8617L242.482 18.6215H247.265L247.387 18.9883C246.972 19.3552 246.763 19.5129 245.098 20.8905C244.431 21.4242 244.025 21.8278 243.236 22.5157L237.835 27.3801L244.276 39.3451L244.029 39.6661L239.429 39.7908L239.095 39.5487C238.017 37.0321 237.728 36.469 236.237 33.5047L233.328 27.747C232.408 31.7346 231.856 34.2495 230.824 39.4661L230.535 39.7101L226.303 39.8312L226.099 39.5487L227.797 32.5785L228.463 29.539C229.58 24.7534 229.787 23.7005 230.454 19.2817L230.744 18.9992C232.223 18.8291 233.692 18.5841 235.145 18.2656L235.35 18.548L234.906 20.5658L234.254 23.695L233.463 27.1801L233.439 27.1619Z" fill="white"/>
<path d="M196.719 34.5559C196.282 34.9312 195.821 35.2808 195.344 35.6033C194.262 36.2563 192.844 36.5424 191.719 36.5424C187.923 36.5424 186.839 33.4132 186.839 31.4634C186.839 31.2634 186.922 26.0155 191.297 23.0953C193.761 21.4683 196.471 21.3876 197.846 21.3876C198.474 21.3876 199.095 21.4243 199.722 21.4243L196.715 34.5559H196.719ZM204.686 18.695L204.481 18.3684L198.724 18.3318C194.886 18.3318 189.509 18.5701 185.63 23.011C183.879 25.0286 182.295 28.5359 182.295 31.7459C182.295 36.8267 185.761 39.7561 190.01 39.7561C193.554 39.7561 195.39 38.2521 196.098 37.6852L195.808 39.3085L196.014 39.5984L199.929 39.514L200.228 39.2278C201.057 34.3835 201.355 32.8445 202.804 26.5823L204.678 18.695H204.686Z" fill="white"/>
<path d="M94.7859 40.3849C90.2648 40.3849 83.7544 38.9835 86.1153 28.7813C86.9967 24.9512 89.7036 16.8364 100.836 16.8364C111.969 16.8364 110.059 25.5071 109.389 28.5758C107.396 37.1969 102.001 40.3905 94.7787 40.3905M96.2507 35.8854C99.4249 35.8854 100.912 32.6516 101.874 28.4878C102.557 25.5529 103.289 21.2607 99.458 21.2607C96.1936 21.2607 94.7473 24.3202 93.7832 28.4878C92.8851 32.3545 92.6791 35.8854 96.247 35.8854" fill="white"/>
<path d="M121.271 39.875C119.177 39.875 115.751 39.875 114.301 39.9154L114.054 39.664C114.455 38.3031 115.434 34.6437 116.463 30.1808C117.298 26.5654 118.038 23.3849 118.327 21.9266C116.575 21.9669 113.879 21.9669 112.565 22.0109L112.326 21.7138C112.672 20.6132 113.16 18.6983 113.463 17.5537L113.865 17.3336C115.029 17.3739 119.457 17.4179 123.021 17.4179C127.332 17.4179 131.526 17.3336 132.406 17.2896L132.704 17.5096C132.382 18.5241 131.817 20.6095 131.528 21.6698L131.118 21.9266C129.393 21.8881 128.085 21.8881 125.597 21.8881C125.38 22.8163 124.708 25.5401 123.588 30.3845C122.745 34.053 122.049 37.3988 121.648 39.5247L121.269 39.8677L121.271 39.875Z" fill="white"/>
<path d="M145.445 22.4441C144.049 22.4441 142.478 22.4881 141.779 22.4881C141.563 23.4255 140.71 26.9124 139.928 30.3113C139.008 34.3064 138.184 38.0502 137.865 39.6184L137.454 39.8789C135.322 39.8789 132.584 39.8789 130.395 39.9194L130.152 39.6661C130.601 37.9181 131.742 33.1618 132.835 28.4386C133.938 23.6841 134.885 19.0049 135.192 17.6879L135.56 17.3888C137.91 17.3888 140.286 17.4768 146.113 17.4768C150.682 17.4768 155.106 17.3485 157.467 17.3044L157.666 17.5667C157.358 18.715 156.049 24.1941 154.791 29.6308C153.777 34.0092 152.848 38.3858 152.607 39.6184L152.285 39.8789C150.417 39.8789 146.978 39.8789 145.185 39.9194L144.993 39.6166C145.378 38.1345 146.216 34.6916 147.201 30.436C147.936 27.2059 148.698 23.7629 148.995 22.4845C148.298 22.4845 146.745 22.4422 145.438 22.4422" fill="white"/>
</g>
</g>
<defs>
<clipPath id="clip0_207_789">
<rect width="246.504" height="48.6184" fill="white" transform="translate(0.885742 0.603516)"/>
</clipPath>
</defs>
</svg>
