<svg width="50" height="50" viewBox="0 0 50 50" fill="none" xmlns="http://www.w3.org/2000/svg">
<g filter="url(#filter0_b_705_764)">
<path d="M50 25C50 38.8071 38.8071 50 25 50C11.1929 50 9.78513e-07 38.8071 2.18557e-06 25C3.39263e-06 11.1929 11.1929 -3.39263e-06 25 -2.18557e-06C38.8071 -9.78513e-07 50 11.1929 50 25Z" fill="#B7004D"/>
</g>
<path d="M21.5363 31.6366C21.8934 32.0157 22.0878 32.5171 22.0786 33.0353C22.0694 33.5534 21.8572 34.0478 21.4867 34.4142C21.1163 34.7806 20.6165 34.9905 20.0927 34.9997C19.5689 35.0088 19.062 34.8165 18.6787 34.4632L10.5913 26.4632C10.2127 26.0882 10 25.5799 10 25.0499C10 24.5199 10.2127 24.0116 10.5913 23.6366L18.6787 15.6366C18.8638 15.4401 19.087 15.2824 19.335 15.1731C19.5831 15.0638 19.8508 15.005 20.1223 15.0003C20.3937 14.9956 20.6634 15.045 20.9152 15.1456C21.1669 15.2462 21.3956 15.3959 21.5876 15.5858C21.7796 15.7757 21.9309 16.0019 22.0326 16.251C22.1343 16.5 22.1843 16.7667 22.1795 17.0353C22.1747 17.3038 22.1153 17.5687 22.0048 17.814C21.8942 18.0593 21.7349 18.2801 21.5363 18.4632L16.8995 23.0499L38.9781 23.0499C39.5144 23.0499 40.0286 23.2606 40.4078 23.6357C40.787 24.0107 41 24.5195 41 25.0499C41 25.5803 40.787 26.089 40.4078 26.4641C40.0286 26.8392 39.5144 27.0499 38.9781 27.0499L16.8995 27.0499L21.5363 31.6366Z" fill="white"/>
<defs>
<filter id="filter0_b_705_764" x="-32" y="-32" width="114" height="114" filterUnits="userSpaceOnUse" color-interpolation-filters="sRGB">
<feFlood flood-opacity="0" result="BackgroundImageFix"/>
<feGaussianBlur in="BackgroundImageFix" stdDeviation="16"/>
<feComposite in2="SourceAlpha" operator="in" result="effect1_backgroundBlur_705_764"/>
<feBlend mode="normal" in="SourceGraphic" in2="effect1_backgroundBlur_705_764" result="shape"/>
</filter>
</defs>
</svg>
