<svg width="72" height="71" viewBox="0 0 72 71" fill="none" xmlns="http://www.w3.org/2000/svg">
<path d="M3.58613 22.3601C3.49053 22.3598 3.395 22.3547 3.29991 22.3448C2.95688 22.3073 2.62461 22.2026 2.32207 22.0366C2.01953 21.8706 1.75265 21.6467 1.53667 21.3775C1.3207 21.1084 1.15986 20.7994 1.06335 20.4681C0.966831 20.1368 0.936531 19.7897 0.974176 19.4467C1.14287 17.8925 1.34613 16.4047 1.59778 14.8906V14.8657C2.81319 8.01434 8.89301 1.93453 15.7444 0.723267H15.7707C17.2833 0.466081 18.7739 0.262821 20.3267 0.0982779C21.0194 0.0232837 21.7136 0.226548 22.2565 0.663356C22.7993 1.10016 23.1464 1.73473 23.2214 2.42747C23.2964 3.1202 23.0932 3.81435 22.6564 4.35722C22.2195 4.90009 21.585 5.24719 20.8922 5.32219C19.4716 5.4758 18.0556 5.66946 16.6459 5.90293C14.3893 6.30115 12.1272 7.54284 10.2743 9.39568C8.4215 11.2485 7.1812 13.5107 6.77883 15.7672C6.54515 17.1735 6.35157 18.5631 6.19809 20.0094C6.1298 20.6546 5.82519 21.2517 5.34294 21.6857C4.86069 22.1197 4.23491 22.3599 3.58613 22.3601ZM69.1187 22.3822C68.4715 22.3815 67.8473 22.142 67.3658 21.7095C66.8843 21.277 66.5794 20.6819 66.5095 20.0385C66.3533 18.5894 66.1638 17.1997 65.9302 15.7935C65.5319 13.5355 64.2875 11.2734 62.4333 9.42057C60.579 7.56772 58.3183 6.32051 56.0617 5.92505C54.6522 5.69023 53.2362 5.49657 51.8154 5.34431C51.1226 5.26932 50.4881 4.92221 50.0513 4.37934C49.6144 3.83648 49.4112 3.14232 49.4862 2.44959C49.5612 1.75686 49.9083 1.12229 50.4511 0.68548C50.994 0.248672 51.6882 0.0454073 52.3809 0.120401C53.9337 0.28771 55.4229 0.492353 56.937 0.744008H56.9632C63.816 1.95942 69.8958 8.03923 71.1057 14.8934V14.9196C71.3573 16.431 71.562 17.9215 71.7293 19.4826C71.8014 20.1731 71.5973 20.8641 71.1615 21.4046C70.7257 21.9451 70.0937 22.2911 69.4036 22.367C69.309 22.3774 69.2139 22.3825 69.1187 22.3822ZM52.0947 70.9128C51.4229 70.9114 50.7771 70.6526 50.2902 70.1897C49.8033 69.7269 49.5123 69.095 49.4768 68.4242C49.4414 67.7533 49.6644 67.0943 50.0998 66.5828C50.5353 66.0712 51.1502 65.7459 51.8181 65.6737C53.2686 65.5161 54.6582 65.3267 56.0631 65.093C58.3211 64.6906 60.5832 63.4503 62.436 61.5961C64.2889 59.7419 65.5319 57.4811 65.9302 55.2245C66.1638 53.8169 66.3533 52.4287 66.5095 50.9796C66.5845 50.2868 66.9316 49.6523 67.4745 49.2154C68.0174 48.7786 68.7115 48.5754 69.4042 48.6504C70.097 48.7254 70.7315 49.0725 71.1684 49.6153C71.6052 50.1582 71.8084 50.8524 71.7334 51.5451C71.5661 53.0993 71.3615 54.5871 71.1098 56.1011V56.1274C69.8999 62.9788 63.8201 69.0586 56.9674 70.2685H56.9425C55.4277 70.5197 53.9061 70.7276 52.3795 70.8921C52.285 70.9038 52.1899 70.9107 52.0947 70.9128ZM20.6129 70.8935C20.5173 70.8934 20.4217 70.8878 20.3267 70.8769C18.7712 70.7082 17.2847 70.5049 15.7707 70.2533H15.7444C8.89301 69.0323 2.81319 62.9525 1.60193 56.0984V56.0721C1.34613 54.5636 1.14287 53.0744 0.974176 51.5188C0.899182 50.8261 1.10245 50.1319 1.53925 49.5891C1.97606 49.0462 2.61063 48.6991 3.30337 48.6241C3.9961 48.5491 4.69025 48.7524 5.23312 49.1892C5.77598 49.626 6.12309 50.2606 6.19809 50.9533C6.35572 52.4038 6.54515 53.792 6.77883 55.1996C7.1812 57.4562 8.42565 59.7183 10.2743 61.5712C12.123 63.424 14.3893 64.6712 16.6459 65.0667C18.0535 65.3004 19.4418 65.4912 20.8922 65.6474C21.5628 65.7165 22.1811 66.0406 22.6194 66.5528C23.0576 67.065 23.2822 67.7261 23.2467 68.3992C23.2112 69.0724 22.9182 69.7061 22.4285 70.1694C21.9388 70.6326 21.2898 70.8899 20.6157 70.8879L20.6129 70.8935Z" fill="white"/>
<g clip-path="url(#clip0_253_3154)">
<path d="M50.3888 21.4449C48.455 19.5117 45.9089 18.3113 43.1871 18.0495C40.4652 17.7877 37.7371 18.4808 35.4702 20.0099C33.2033 21.539 31.5389 23.809 30.7622 26.4308C29.9855 29.0526 30.145 31.8629 31.2131 34.38C26.7596 38.2768 22.5614 42.456 18.6446 46.8919C18.1898 47.4047 17.9708 48.1163 18.0226 48.8419C18.1014 49.9525 18.1604 51.0422 18.1996 52.1109C18.2097 52.5118 18.3735 52.8936 18.6571 53.1772C18.9408 53.4609 19.3226 53.6247 19.7235 53.6348C20.7899 53.6712 21.8814 53.7327 22.9918 53.8111C23.7174 53.8629 24.4289 53.6432 24.9446 53.1877C25.19 52.9708 25.4346 52.7532 25.6786 52.5349C25.864 52.3693 25.9837 52.1426 26.0158 51.8961C26.0975 51.2943 26.1737 50.6865 26.2446 50.0727C26.3531 49.1351 27.2032 48.5229 28.1919 48.7034C30.0062 49.0378 31.4335 47.6468 31.1061 45.8346V45.8207C30.9298 44.8327 31.549 43.9875 32.4992 43.8937C33.1121 43.8326 33.7215 43.7682 34.3274 43.7006C34.578 43.6744 34.8105 43.558 34.9817 43.3731C35.8185 42.4677 36.6432 41.5507 37.4558 40.622C39.973 41.6899 42.7833 41.8489 45.405 41.072C48.0267 40.295 50.2965 38.6303 51.8254 36.3633C53.3543 34.0963 54.047 31.368 53.7849 28.6462C53.5228 25.9244 52.3222 23.3785 50.3888 21.4449ZM47.3319 29.11C46.8762 29.5654 46.2957 29.8756 45.6638 30.0012C45.0319 30.1267 44.377 30.0622 43.7818 29.8155C43.1866 29.5689 42.6779 29.1514 42.32 28.6157C41.9621 28.08 41.771 27.4502 41.771 26.8059C41.771 26.1616 41.9621 25.5318 42.32 24.9961C42.6779 24.4604 43.1866 24.0429 43.7818 23.7963C44.377 23.5497 45.0319 23.4851 45.6638 23.6106C46.2957 23.7362 46.8762 24.0464 47.3319 24.5018C47.6345 24.8044 47.8746 25.1635 48.0384 25.5589C48.2022 25.9542 48.2865 26.378 48.2865 26.8059C48.2865 27.2338 48.2022 27.6576 48.0384 28.0529C47.8746 28.4483 47.6345 28.8074 47.3319 29.11Z" fill="white"/>
</g>
<defs>
<clipPath id="clip0_253_3154">
<rect width="35.8241" height="35.8241" fill="white" transform="translate(18.0127 17.9946)"/>
</clipPath>
</defs>
</svg>
