<svg width="71" height="72" viewBox="0 0 71 72" fill="none" xmlns="http://www.w3.org/2000/svg">
<path d="M2.71162 23.2062C2.61602 23.206 2.52049 23.2009 2.4254 23.191C2.08237 23.1535 1.75009 23.0488 1.44755 22.8828C1.14501 22.7168 0.878135 22.4929 0.662161 22.2237C0.446186 21.9546 0.285349 21.6456 0.188834 21.3142C0.0923197 20.9829 0.0620194 20.6359 0.099664 20.2929C0.268356 18.7387 0.471615 17.2509 0.72327 15.7368V15.7119C1.93868 8.86053 8.0185 2.78072 14.8699 1.56946H14.8961C16.4088 1.31227 17.8994 1.10901 19.4522 0.944469C20.1449 0.869475 20.8391 1.07274 21.382 1.50955C21.9248 1.94636 22.2719 2.58093 22.3469 3.27366C22.4219 3.96639 22.2186 4.66055 21.7818 5.20341C21.345 5.74628 20.7105 6.09339 20.0177 6.16838C18.5971 6.322 17.1811 6.51565 15.7714 6.74912C13.5148 7.14735 11.2527 8.38903 9.39983 10.2419C7.54699 12.0947 6.30669 14.3568 5.90432 16.6134C5.67064 18.0197 5.47706 19.4093 5.32358 20.8556C5.25528 21.5008 4.95068 22.0979 4.46843 22.5319C3.98618 22.9659 3.3604 23.2061 2.71162 23.2062ZM68.2442 23.2284C67.597 23.2277 66.9728 22.9882 66.4912 22.5557C66.0097 22.1231 65.7048 21.5281 65.635 20.8847C65.4788 19.4356 65.2893 18.0459 65.0556 16.6397C64.6574 14.3817 63.413 12.1196 61.5588 10.2668C59.7045 8.41392 57.4438 7.1667 55.1872 6.77125C53.7777 6.53642 52.3616 6.34276 50.9409 6.1905C50.2481 6.11551 49.6136 5.7684 49.1767 5.22553C48.7399 4.68267 48.5367 3.98852 48.6117 3.29578C48.6867 2.60305 49.0338 1.96848 49.5766 1.53167C50.1195 1.09486 50.8137 0.891599 51.5064 0.966593C53.0592 1.1339 54.5484 1.33854 56.0624 1.5902H56.0887C62.9415 2.80561 69.0213 8.88542 70.2312 15.7396V15.7658C70.4828 17.2771 70.6875 18.7677 70.8548 20.3288C70.9269 21.0193 70.7228 21.7103 70.287 22.2508C69.8512 22.7913 69.2192 23.1373 68.529 23.2132C68.4345 23.2236 68.3394 23.2287 68.2442 23.2284ZM51.2202 71.759C50.5484 71.7576 49.9026 71.4988 49.4157 71.0359C48.9288 70.573 48.6377 69.9412 48.6023 69.2703C48.5669 68.5995 48.7899 67.9405 49.2253 67.429C49.6608 66.9174 50.2757 66.5921 50.9436 66.5199C52.3941 66.3623 53.7837 66.1728 55.1886 65.9392C57.4465 65.5368 59.7087 64.2965 61.5615 62.4423C63.4144 60.588 64.6574 58.3273 65.0556 56.0707C65.2893 54.6631 65.4788 53.2748 65.635 51.8258C65.71 51.133 66.0571 50.4984 66.6 50.0616C67.1428 49.6248 67.837 49.4216 68.5297 49.4966C69.2225 49.5716 69.857 49.9187 70.2938 50.4615C70.7306 51.0044 70.9339 51.6986 70.8589 52.3913C70.6916 53.9455 70.487 55.4333 70.2353 56.9473V56.9736C69.0254 63.825 62.9456 69.9048 56.0929 71.1147H56.068C54.5532 71.3659 53.0316 71.5738 51.505 71.7383C51.4105 71.75 51.3154 71.7569 51.2202 71.759ZM19.7384 71.7397C19.6428 71.7396 19.5472 71.734 19.4522 71.7231C17.8966 71.5544 16.4102 71.3511 14.8961 71.0995H14.8699C8.0185 69.8785 1.93868 63.7987 0.727418 56.9446V56.9183C0.471615 55.4098 0.268356 53.9206 0.099664 52.365C0.0246698 51.6723 0.227935 50.9781 0.664742 50.4353C1.10155 49.8924 1.73612 49.5453 2.42885 49.4703C3.12159 49.3953 3.81574 49.5986 4.35861 50.0354C4.90147 50.4722 5.24858 51.1068 5.32358 51.7995C5.48121 53.25 5.67064 54.6382 5.90432 56.0458C6.30669 58.3024 7.55114 60.5645 9.39983 62.4174C11.2485 64.2702 13.5148 65.5174 15.7714 65.9129C17.179 66.1466 18.5673 66.3374 20.0177 66.4936C20.6883 66.5627 21.3066 66.8868 21.7449 67.399C22.1831 67.9112 22.4077 68.5723 22.3722 69.2454C22.3366 69.9186 22.0437 70.5523 21.554 71.0156C21.0643 71.4788 20.4153 71.7361 19.7412 71.7341L19.7384 71.7397Z" fill="white"/>
<rect x="16.2886" y="31.6357" width="38.3829" height="8.52954" rx="4.26477" fill="white"/>
<rect x="39.3184" y="17.1355" width="38.3829" height="8.52954" rx="4.26477" transform="rotate(90 39.3184 17.1355)" fill="white"/>
</svg>
