<svg width="50" height="50" viewBox="0 0 50 50" fill="none" xmlns="http://www.w3.org/2000/svg">
<path d="M2.10307 15.4702C2.03668 15.47 1.97034 15.4665 1.9043 15.4596C1.66609 15.4335 1.43534 15.3608 1.22524 15.2455C1.01515 15.1303 0.829814 14.9748 0.679832 14.7879C0.529849 14.601 0.418157 14.3864 0.351133 14.1563C0.284109 13.9262 0.263067 13.6852 0.289209 13.447C0.406356 12.3677 0.547509 11.3345 0.722269 10.2831V10.2658C1.5663 5.50787 5.7884 1.28578 10.5463 0.444624H10.5645C11.615 0.266023 12.6501 0.124871 13.7285 0.0106043C14.2095 -0.041475 14.6916 0.099681 15.0686 0.40302C15.4456 0.706358 15.6866 1.14703 15.7387 1.6281C15.7908 2.10916 15.6496 2.59121 15.3463 2.9682C15.0429 3.34519 14.6023 3.58624 14.1212 3.63832C13.1347 3.745 12.1513 3.87948 11.1724 4.04161C9.60528 4.31816 8.03436 5.18044 6.74766 6.46713C5.46096 7.75383 4.59964 9.32475 4.32022 10.8918C4.15794 11.8684 4.02351 12.8334 3.91693 13.8378C3.8695 14.2858 3.65797 14.7005 3.32307 15.0019C2.98818 15.3033 2.55361 15.4701 2.10307 15.4702ZM47.6118 15.4855C47.1623 15.4851 46.7289 15.3187 46.3945 15.0184C46.0601 14.718 45.8484 14.3048 45.7999 13.858C45.6914 12.8516 45.5598 11.8866 45.3975 10.9101C45.121 9.34204 44.2568 7.77111 42.9691 6.48442C41.6815 5.19772 40.1115 4.3316 38.5444 4.05698C37.5656 3.89391 36.5822 3.75942 35.5956 3.65368C35.1145 3.6016 34.6739 3.36056 34.3705 2.98357C34.0672 2.60658 33.926 2.12453 33.9781 1.64346C34.0302 1.1624 34.2712 0.721722 34.6482 0.418383C35.0252 0.115045 35.5073 -0.0261115 35.9883 0.0259678C37.0667 0.142155 38.1008 0.284267 39.1522 0.459028H39.1705C43.9294 1.30306 48.1514 5.52516 48.9916 10.285V10.3032C49.1664 11.3527 49.3085 12.3879 49.4247 13.4719C49.4748 13.9515 49.333 14.4313 49.0304 14.8067C48.7278 15.182 48.2889 15.4223 47.8096 15.475C47.7439 15.4822 47.6779 15.4858 47.6118 15.4855ZM35.7896 49.1874C35.323 49.1864 34.8746 49.0067 34.5365 48.6852C34.1983 48.3638 33.9962 47.925 33.9716 47.4591C33.947 46.9932 34.1018 46.5356 34.4043 46.1804C34.7067 45.8251 35.1337 45.5992 35.5975 45.5491C36.6048 45.4396 37.5698 45.3081 38.5454 45.1458C40.1134 44.8664 41.6844 44.0051 42.9711 42.7174C44.2577 41.4298 45.121 39.8598 45.3975 38.2927C45.5598 37.3152 45.6914 36.3511 45.7999 35.3448C45.8519 34.8638 46.093 34.4231 46.47 34.1197C46.847 33.8164 47.329 33.6753 47.8101 33.7273C48.2912 33.7794 48.7318 34.0205 49.0352 34.3975C49.3385 34.7744 49.4797 35.2565 49.4276 35.7376C49.3114 36.8168 49.1693 37.85 48.9945 38.9015V38.9197C48.1543 43.6776 43.9322 47.8997 39.1734 48.7399H39.1561C38.1042 48.9144 37.0475 49.0588 35.9874 49.173C35.9217 49.1811 35.8557 49.1859 35.7896 49.1874ZM13.9272 49.1739C13.8608 49.1739 13.7945 49.17 13.7285 49.1624C12.6482 49.0453 11.616 48.9041 10.5645 48.7294H10.5463C5.7884 47.8815 1.5663 43.6594 0.72515 38.8996V38.8813C0.547509 37.8337 0.406356 36.7996 0.289209 35.7193C0.23713 35.2383 0.378286 34.7562 0.681625 34.3792C0.984963 34.0022 1.42564 33.7612 1.9067 33.7091C2.38777 33.657 2.86982 33.7982 3.24681 34.1015C3.6238 34.4048 3.86485 34.8455 3.91693 35.3266C4.02639 36.3339 4.15794 37.2979 4.32022 38.2754C4.59964 39.8425 5.46384 41.4134 6.74766 42.7001C8.03148 43.9868 9.60528 44.8529 11.1724 45.1276C12.1499 45.2898 13.1139 45.4224 14.1212 45.5309C14.5869 45.5788 15.0163 45.8039 15.3206 46.1596C15.6249 46.5153 15.7809 46.9744 15.7562 47.4418C15.7316 47.9093 15.5281 48.3494 15.1881 48.6711C14.848 48.9928 14.3973 49.1714 13.9292 49.1701L13.9272 49.1739Z" fill="white"/>
<path fill-rule="evenodd" clip-rule="evenodd" d="M17.6385 12.8311C20.2309 11.3331 23.244 10.7291 26.2134 11.1122L26.0215 12.5986L26.2134 11.1137C29.1826 11.4967 31.9435 12.8453 34.0708 14.9518C36.1981 17.0582 37.5738 19.8056 37.9861 22.7709C38.04 23.1645 37.9355 23.5635 37.6956 23.8801C37.4557 24.1968 37.0999 24.4053 36.7063 24.46C36.3128 24.5146 35.9137 24.4109 35.5965 24.1715C35.2794 23.9322 35.0702 23.5768 35.0148 23.1833C34.7746 21.4548 34.1133 19.8117 33.089 18.3988C32.0646 16.9858 30.7088 15.8462 29.1406 15.0803C27.5725 14.3144 25.8402 13.9456 24.096 14.0064C22.3519 14.0672 20.6494 14.5557 19.1384 15.4289C17.8159 16.1928 16.6731 17.2322 15.7877 18.4767H18.5025C18.9003 18.4767 19.2818 18.6347 19.5631 18.916C19.8444 19.1973 20.0024 19.5788 20.0024 19.9766C20.0024 20.3744 19.8444 20.7559 19.5631 21.0372C19.2818 21.3184 18.9003 21.4765 18.5025 21.4765H12.4999C12.1021 21.4765 11.7206 21.3184 11.4393 21.0372C11.158 20.7559 11 20.3744 11 19.9766V13.977C11 13.5792 11.158 13.1977 11.4393 12.9164C11.7206 12.6351 12.1021 12.4771 12.4999 12.4771C12.8977 12.4771 13.2792 12.6351 13.5605 12.9164C13.8418 13.1977 13.9998 13.5792 13.9998 13.977V15.8863C15.0247 14.663 16.2563 13.6289 17.6385 12.8311ZM12.2959 24.4913C12.6899 24.4366 13.0895 24.5406 13.4068 24.7806C13.7241 25.0205 13.9331 25.3766 13.9878 25.7707C14.3094 28.084 15.3825 30.2275 17.042 31.871C18.7015 33.5145 20.8553 34.5669 23.1717 34.866C25.0861 35.1133 27.0317 34.8356 28.8004 34.0625C30.5692 33.2895 32.0946 32.0503 33.2135 30.4773H30.5001C30.1024 30.4773 29.7208 30.3193 29.4396 30.038C29.1583 29.7567 29.0003 29.3752 29.0003 28.9774C29.0003 28.5796 29.1583 28.1981 29.4396 27.9169C29.7208 27.6356 30.1024 27.4775 30.5001 27.4775H36.4997C36.8975 27.4775 37.279 27.6356 37.5603 27.9169C37.8416 28.1981 37.9996 28.5796 37.9996 28.9774V34.977C37.9996 35.3748 37.8416 35.7563 37.5603 36.0376C37.279 36.3189 36.8975 36.4769 36.4997 36.4769C36.1019 36.4769 35.7204 36.3189 35.4391 36.0376C35.1579 35.7563 34.9998 35.3748 34.9998 34.977V33.0677C33.7879 34.5158 32.2885 35.6966 30.5967 36.5354C28.9048 37.3741 27.0573 37.8527 25.171 37.9406C23.2847 38.0286 21.4006 37.7241 19.638 37.0464C17.8755 36.3687 16.2727 35.3326 14.9312 34.0036C12.8039 31.8967 11.4283 29.1488 11.0165 26.1831C10.9618 25.7891 11.0659 25.3895 11.3058 25.0722C11.5457 24.7549 11.9019 24.546 12.2959 24.4913Z" fill="white"/>
</svg>
