<svg width="1200" height="1066" viewBox="0 0 840 1066" fill="none" xmlns="http://www.w3.org/2000/svg">
<g opacity="0.8">
<g filter="url(#filter0_f_375_138)">
<path d="M477.891 745.452C451.676 750.585 346.916 716.462 137.593 538.906C39.6434 460.858 44.9323 443.957 62.7048 447.709C73.3096 420.415 -178.196 283.442 -178.196 283.442C-111.53 279.526 11.5844 356.222 64.8083 395.059C102.098 418.944 195.232 490.729 269.447 586.786C343.662 682.843 439.333 732.587 477.891 745.452Z" fill="white" fill-opacity="0.2"/>
<path d="M477.891 745.452C451.676 750.585 346.916 716.462 137.593 538.906C39.6434 460.858 44.9323 443.957 62.7048 447.709C73.3096 420.415 -178.196 283.442 -178.196 283.442C-111.53 279.526 11.5844 356.222 64.8083 395.059C102.098 418.944 195.232 490.729 269.447 586.786C343.662 682.843 439.333 732.587 477.891 745.452Z" stroke="black" stroke-width="0.592329"/>
</g>
<g filter="url(#filter1_f_375_138)">
<path d="M787.196 702.712C685.781 731.99 438.782 753.08 262.109 603.219C164.847 541.935 231.27 508.177 279.073 501.024C393.155 444.911 -40.3506 398.905 -40.3506 398.905C191.085 340.49 375.345 379.944 438.545 406.973C492.456 420.073 591.963 474.086 558.699 585.332C525.435 696.579 697.17 709.938 787.196 702.712Z" fill="#6C0650" fill-opacity="0.6"/>
<path d="M787.196 702.712C685.781 731.99 438.782 753.08 262.109 603.219C164.847 541.935 231.27 508.177 279.073 501.024C393.155 444.911 -40.3506 398.905 -40.3506 398.905C191.085 340.49 375.345 379.944 438.545 406.973C492.456 420.073 591.963 474.086 558.699 585.332C525.435 696.579 697.17 709.938 787.196 702.712Z" stroke="black" stroke-width="0.592329"/>
</g>
<g filter="url(#filter2_f_375_138)">
<path d="M1046.71 777.694C945.844 806.582 696.284 823.793 504.99 661.531C401.324 594.657 466.259 560.304 514.32 553.722C625.99 496.695 181.551 439.034 181.551 439.034C412.391 381.998 602.84 427.567 669.21 457.481C725.053 472.461 830.438 531.685 805.233 648.736C780.028 765.787 955.718 783.479 1046.71 777.694Z" fill="#001C5C"/>
<path d="M1046.71 777.694C945.844 806.582 696.284 823.793 504.99 661.531C401.324 594.657 466.259 560.304 514.32 553.722C625.99 496.695 181.551 439.034 181.551 439.034C412.391 381.998 602.84 427.567 669.21 457.481C725.053 472.461 830.438 531.685 805.233 648.736C780.028 765.787 955.718 783.479 1046.71 777.694Z" stroke="black" stroke-width="0.592329"/>
</g>
</g>
<defs>
<filter id="filter0_f_375_138" x="-238.208" y="223.854" width="776.191" height="581.52" filterUnits="userSpaceOnUse" color-interpolation-filters="sRGB">
<feFlood flood-opacity="0" result="BackgroundImageFix"/>
<feBlend mode="normal" in="SourceGraphic" in2="BackgroundImageFix" result="shape"/>
<feGaussianBlur stdDeviation="29.6165" result="effect1_foregroundBlur_375_138"/>
</filter>
<filter id="filter1_f_375_138" x="-219.317" y="190.747" width="1184.43" height="710.777" filterUnits="userSpaceOnUse" color-interpolation-filters="sRGB">
<feFlood flood-opacity="0" result="BackgroundImageFix"/>
<feBlend mode="normal" in="SourceGraphic" in2="BackgroundImageFix" result="shape"/>
<feGaussianBlur stdDeviation="88.8494" result="effect1_foregroundBlur_375_138"/>
</filter>
<filter id="filter2_f_375_138" x="2.64983" y="233.872" width="1221.98" height="740.579" filterUnits="userSpaceOnUse" color-interpolation-filters="sRGB">
<feFlood flood-opacity="0" result="BackgroundImageFix"/>
<feBlend mode="normal" in="SourceGraphic" in2="BackgroundImageFix" result="shape"/>
<feGaussianBlur stdDeviation="88.8494" result="effect1_foregroundBlur_375_138"/>
</filter>
</defs>
</svg>
