<svg width="1016" height="720" viewBox="0 0 1016 720" fill="none" xmlns="http://www.w3.org/2000/svg">
<g opacity="0.8">
<path d="M450.155 526.044C423.808 524.655 337.977 474.011 205.43 282.546C141.612 197.11 152.578 184.296 167.865 191.206C187.504 170.955 1.04922 3.93334 1.04922 3.93334C64.7977 15.0073 152.633 104.727 188.583 148.203C214.954 175.919 276.497 255.152 311.702 350.359C346.906 445.565 418.672 507.152 450.155 526.044Z" fill="white" fill-opacity="0.2" stroke="black" stroke-width="0.592329"/>
<path d="M759.982 564.815C654.445 566.847 410.404 523.291 278.538 332.809C200.451 248.44 273.348 233.024 321.374 238.487C446.092 213.813 39.2648 57.1745 39.2648 57.1745C277.934 60.6497 445.703 146.449 499.754 188.915C548.438 215.522 630.575 293.449 569.651 392.295C508.728 491.142 671.154 548.494 759.982 564.815Z" fill="#6C0650" fill-opacity="0.6" stroke="black" stroke-width="0.592329"/>
<path d="M991.25 704.41C886.341 706.207 640.83 658.24 498.051 451.996C415.225 360.571 486.838 344.194 534.966 350.275C657.59 324.094 243.219 153.369 243.219 153.369C480.955 158.022 653.121 251.33 709.487 297.402C759.55 326.326 846.016 410.807 791.375 517.346C736.734 623.885 901.858 686.447 991.25 704.41Z" fill="#001C5C" stroke="black" stroke-width="0.592329"/>
</g>
</svg>
