<svg width="1132" height="513" viewBox="0 0 1132 513" fill="none" xmlns="http://www.w3.org/2000/svg">
<g opacity="0.8">
<path d="M743.702 390.888C770.352 389.736 862.711 351.861 1018.95 209.574C1093.36 146.06 1083.88 136.631 1067.68 141.816C1050.37 126.924 1257.86 2.4693 1257.86 2.4693C1192.45 10.9629 1093.38 77.7592 1052.02 110.096C1022.18 130.727 950.803 189.64 903.978 260.248C857.153 330.856 777.617 376.761 743.702 390.888Z" fill="white" fill-opacity="0.2" stroke="black" stroke-width="0.592329"/>
<path d="M433.874 415.332C539.411 416.613 783.452 389.152 915.318 269.059C993.405 215.866 920.508 206.147 872.482 209.591C747.764 194.035 1154.59 95.2784 1154.59 95.2784C915.922 97.4695 748.153 151.564 694.102 178.337C645.418 195.112 563.281 244.243 624.205 306.563C685.128 368.883 522.702 405.042 433.874 415.332Z" fill="#6C0650" fill-opacity="0.6" stroke="black" stroke-width="0.592329"/>
<path d="M36.7375 498.842C189.967 501.018 537.698 467.784 702.784 317.437C804.426 250.95 696.673 238.334 627.816 242.409C443.696 222.175 1011.9 100.137 1011.9 100.137C666.477 101.615 435.056 168.757 362.523 202.143C295.602 222.982 187.21 284.339 289.009 363.051C390.808 441.764 163.244 486.375 36.7375 498.842Z" fill="#001C5C" stroke="black" stroke-width="0.592329"/>
</g>
</svg>
